<svg version="1.1" id="Layer_1" xmlns="http://www.w3.org/2000/svg" xmlns:xlink="http://www.w3.org/1999/xlink" x="0px" y="0px"
	 width="100%" viewBox="0 0 540 165" enable-background="new 0 0 540 165" xml:space="preserve">
<path fill="#FDFDFD" opacity="1.000000" stroke="none" 
	d="
M1.000000,165.000000 
	C1.000000,110.977989 1.000000,56.955978 1.225096,2.367721 
	C1.717308,1.591842 1.900578,1.324684 2.000000,1.000000 
	C181.022018,1.000000 360.044037,1.000000 539.638916,1.222137 
	C540.399841,1.735454 540.662598,1.920696 541.000000,2.000000 
	C541.000000,56.022015 541.000000,110.044029 540.774841,164.632263 
	C540.282227,165.407898 540.098999,165.675079 540.000000,166.000000 
	C360.977997,166.000000 181.955978,166.000000 2.360936,165.777985 
	C1.600080,165.264633 1.337445,165.079315 1.000000,165.000000 
M461.891052,75.434479 
	C461.749847,75.239609 461.571472,75.088676 461.183960,74.350197 
	C461.145386,74.135475 461.106812,73.920753 460.982758,73.475655 
	C460.982758,73.475655 460.696869,73.088898 460.403870,72.626602 
	C460.310516,72.469872 460.217133,72.313133 459.939789,71.658470 
	C459.043610,71.067482 458.147400,70.476501 457.137299,69.852898 
	C457.137299,69.852898 457.136749,69.734406 457.179321,69.093018 
	C457.683472,67.618187 458.187622,66.143356 458.427155,65.442574 
	C456.284485,64.864090 454.521301,64.752151 453.247253,63.904778 
	C452.506653,63.412212 452.550964,61.739536 452.002960,59.713810 
	C454.445984,61.345215 455.758667,62.221794 457.071320,63.098373 
	C457.400879,62.740166 457.730408,62.381962 458.059937,62.023754 
	C457.045593,60.697712 456.031281,59.371670 455.179565,57.360165 
	C456.149841,56.246090 457.120148,55.132019 458.006989,53.984032 
	C458.006989,53.984032 457.969666,54.066036 458.407837,53.912083 
	C458.722473,53.755432 458.869476,53.501732 459.072327,52.391766 
	C458.260132,51.016502 457.441895,48.462143 456.636780,48.466278 
	C452.764618,48.486160 452.847931,45.545792 452.016541,43.235645 
	C449.821075,37.135368 445.175842,34.620495 436.761963,35.014027 
	C430.263489,35.317970 425.703766,38.903156 424.110535,44.740044 
	C423.796539,45.890331 423.091827,47.305271 422.139496,47.849525 
	C416.110352,51.295078 416.046844,51.382118 420.901245,57.091068 
	C420.740295,61.089069 416.798615,64.481445 418.890839,68.898163 
	C418.890839,68.898163 418.863708,69.025970 418.186798,69.047958 
	C417.419189,70.607018 416.651550,72.166084 415.892822,73.849937 
	C415.892822,73.849937 415.788361,73.918770 415.165863,74.044418 
	C414.432648,74.985535 413.699432,75.926643 412.324158,77.135468 
	C409.886627,78.710991 407.449097,80.286507 405.188812,81.747452 
	C402.418213,77.636627 399.682373,73.816849 397.225372,69.825424 
	C396.089294,67.979881 393.737915,66.029434 396.958801,63.578228 
	C397.677704,63.031105 396.921844,60.546127 397.205902,58.373329 
	C400.078278,55.950172 402.950653,53.527016 406.180115,51.707802 
	C407.479095,51.530071 408.778107,51.352345 410.077087,51.174614 
	C409.198273,48.162258 415.053192,43.970066 408.276855,41.231415 
	C407.405396,39.792007 405.681122,38.243793 405.847870,36.936855 
	C406.153381,34.542339 405.056763,34.421410 403.963928,33.765209 
	C406.507416,30.125296 405.535828,27.448627 399.690765,22.366791 
	C396.756104,21.085541 393.919891,19.158850 390.860962,18.692274 
	C387.322479,18.152552 383.587982,18.897993 379.221649,18.997620 
	C378.499969,19.033928 377.778320,19.070234 376.783752,18.707239 
	C375.965149,19.138021 375.146515,19.568804 373.998810,19.338140 
	C372.651733,19.476519 371.304688,19.614895 369.167450,19.768415 
	C368.122681,19.892094 367.077881,20.015772 365.455414,20.027281 
	C364.957855,20.275927 364.460327,20.524574 363.228058,20.823856 
	C362.497894,20.916193 361.767700,21.008530 360.628052,20.993685 
	C360.307037,21.000875 360.085785,21.153091 359.236481,21.676538 
	C358.495178,21.837599 357.753876,21.998661 356.326874,22.163761 
	C355.237640,22.511009 354.148438,22.858257 352.491302,23.204357 
	C351.642548,23.597410 350.793823,23.990461 349.267883,24.587534 
	C348.492035,25.048567 347.716187,25.509602 346.996918,25.997393 
	C346.996918,25.997393 346.992706,25.934963 346.317139,25.933943 
	C346.092560,25.950617 345.868011,25.967291 345.022827,26.203928 
	C344.685944,27.150944 344.349060,28.097958 343.720825,29.408730 
	C343.498413,29.626535 343.263214,29.829504 342.483063,30.000931 
	C342.306610,30.020201 342.130157,30.039469 341.280945,30.219057 
	C340.174194,32.462517 339.067444,34.705975 338.113525,37.619312 
	C339.628540,37.793350 341.143585,37.967388 342.729858,38.722706 
	C342.765167,39.776642 342.800446,40.830582 342.176575,42.173634 
	C341.412506,44.414894 340.648438,46.656151 339.251251,49.090218 
	C338.558441,49.798729 337.865662,50.507240 336.985901,51.716507 
	C337.189056,52.159622 337.392212,52.602734 337.746826,53.855209 
	C338.859131,54.252113 339.971466,54.649017 341.629333,55.274120 
	C342.024567,55.303169 342.419830,55.332218 342.818268,56.069214 
	C346.743134,62.366966 351.442535,63.826721 360.437347,61.189014 
	C360.437347,61.189014 360.900116,61.180901 361.126160,61.681755 
	C361.463226,61.776382 361.800323,61.871010 363.004028,62.198849 
	C366.018829,62.121933 369.033661,62.045013 372.891479,62.237431 
	C375.683807,61.566917 378.447632,60.614899 381.278809,60.328632 
	C383.053711,60.149166 384.929810,60.970512 386.948425,61.995277 
	C389.272583,66.753342 391.723694,71.454681 393.882172,76.286766 
	C395.730713,80.425041 397.388367,84.663490 398.861176,88.950134 
	C400.104279,92.568008 402.058441,92.485603 404.809967,90.733704 
	C409.504242,87.744896 414.257629,84.848938 419.265778,82.507126 
	C419.872864,83.818016 422.633148,83.514305 421.290070,86.572876 
	C420.364227,88.681259 420.995026,92.432556 422.408295,94.373085 
	C424.301727,96.972900 424.576843,97.956703 421.603760,99.454552 
	C420.448792,100.036423 419.806061,101.635071 418.212830,102.995918 
	C414.659637,104.299591 411.123138,105.651245 407.549591,106.896500 
	C400.980713,109.185509 400.088318,113.033485 405.210968,118.764656 
	C410.254791,120.668716 416.235779,117.331123 420.908752,121.554672 
	C421.176086,121.796280 422.099457,121.328636 422.711731,121.169044 
	C425.013062,120.569206 427.294891,119.524193 429.614960,119.432861 
	C438.064301,119.100266 446.526093,119.085297 455.726837,119.037399 
	C459.236084,122.561386 463.179291,119.045586 467.657867,119.862564 
	C469.344391,119.387779 471.317535,119.309860 472.651276,118.346596 
	C474.728607,116.846245 477.753204,114.787827 477.812622,112.885849 
	C477.872742,110.960968 475.171265,108.328491 473.047150,107.093666 
	C469.303436,104.917305 465.078979,103.567932 460.754089,101.372437 
	C458.867584,99.237450 456.981079,97.102470 455.029968,94.980576 
	C455.029968,94.980576 455.038208,94.915657 455.061188,94.340843 
	C454.928284,93.621765 454.795349,92.902687 454.346100,91.976440 
	C454.346100,91.976440 453.969299,92.008240 454.012085,91.109558 
	C454.012085,87.896645 454.012085,84.683739 454.012085,81.280426 
	C456.572693,81.962662 458.215332,82.400307 460.520905,83.140968 
	C464.634338,85.820473 468.834869,88.377411 472.832916,91.219208 
	C475.899017,93.398560 477.380066,91.975868 478.345917,89.197334 
	C479.673309,85.378769 480.731323,81.465889 482.081909,77.656227 
	C483.529114,73.574089 485.006439,69.484474 486.807373,65.552383 
	C487.980438,62.991203 489.754700,60.705395 491.713470,58.278038 
	C492.133331,58.158966 492.553192,58.039894 493.540466,57.619583 
	C493.748077,56.046543 493.955719,54.473507 494.174103,52.818806 
	C491.906067,53.247074 490.389618,53.533424 488.308350,54.070972 
	C487.797882,54.697727 487.287415,55.324482 486.156128,55.913868 
	C485.428741,56.178837 484.701355,56.443810 483.331543,56.489491 
	C482.694733,56.985497 482.057922,57.481503 481.164673,57.446644 
	C478.319153,59.128643 478.486572,62.394955 481.860535,66.042793 
	C478.610382,71.197121 475.305511,76.438202 471.960358,81.743149 
	C468.735962,79.951492 465.878326,78.363625 462.837311,76.435730 
	C462.690430,76.215706 462.495789,76.052673 462.115082,75.885429 
	C462.115082,75.885429 462.057892,75.745369 461.891052,75.434479 
M281.098022,93.977852 
	C281.098022,93.977852 280.987671,93.915817 280.982025,93.079689 
	C279.340363,86.841545 279.386078,80.795204 283.627960,74.893677 
	C284.748352,74.203880 285.868713,73.514076 287.649261,72.889610 
	C288.486084,72.610031 289.322906,72.330452 290.715210,72.241562 
	C291.096313,72.178612 291.477417,72.115669 292.326324,72.298958 
	C292.836578,72.381325 293.346832,72.463684 294.539886,72.890991 
	C296.585175,74.130188 298.630463,75.369392 301.639374,77.192436 
	C301.736420,76.000839 301.826233,74.897766 301.827240,73.251968 
	C301.265747,72.803879 300.704224,72.355789 299.819916,71.310120 
	C298.572418,70.862503 297.324951,70.414886 295.588379,69.513885 
	C294.728760,69.395363 293.869141,69.276840 292.215576,68.996056 
	C291.140961,69.051880 290.066345,69.107704 288.366791,69.049553 
	C287.607178,69.365463 286.847534,69.681374 285.355133,69.969597 
	C279.535339,72.022072 276.815521,76.371025 275.976715,83.080162 
	C276.055847,85.292213 276.135010,87.504272 276.129517,90.495667 
	C277.300201,95.784058 279.257019,100.450531 285.577026,102.251884 
	C286.014801,102.379578 286.452545,102.507271 287.693176,102.940689 
	C290.117676,102.576881 292.542206,102.213066 295.806641,101.736694 
	C297.065704,100.585716 298.324768,99.434746 299.687225,99.273582 
	C300.294434,100.516670 300.901642,101.759766 301.508881,103.002861 
	C302.088531,101.748642 303.114227,100.513268 303.168152,99.236832 
	C303.368073,94.503502 303.247833,89.756645 303.247833,84.739334 
	C299.228455,84.739334 295.773926,84.633049 292.335144,84.818222 
	C291.531525,84.861488 290.781097,85.893181 290.006195,86.470093 
	C290.825256,86.985123 291.610413,87.864372 292.470001,87.944427 
	C294.722351,88.154190 297.007172,88.015190 299.302917,88.015190 
	C299.748810,93.216324 299.505615,97.567810 293.363007,99.229820 
	C292.843658,99.460915 292.324341,99.692017 291.177094,99.753632 
	C290.533844,99.808105 289.890625,99.862572 288.767548,99.544388 
	C288.181183,99.435867 287.594788,99.327339 286.378204,98.942390 
	C285.211487,98.233803 284.044800,97.525215 282.751923,96.283592 
	C282.189209,95.555634 281.626495,94.827675 281.098022,93.977852 
M211.402740,67.018555 
	C211.234711,67.053337 211.066681,67.088127 210.059494,66.971771 
	C209.432892,67.848076 208.274643,68.716606 208.261719,69.601868 
	C208.128616,78.714172 208.053848,87.831650 208.230698,96.942490 
	C208.331146,102.116844 211.192245,103.773109 217.667740,101.852631 
	C215.774704,100.618752 214.534561,99.810417 213.118546,98.062706 
	C213.076080,89.430725 213.089294,80.797806 212.943451,72.167572 
	C212.914780,70.471085 212.271698,68.784988 211.402740,67.018555 
M167.402740,67.018555 
	C167.234711,67.053337 167.066681,67.088127 166.059494,66.971771 
	C165.432892,67.848068 164.274643,68.716599 164.261719,69.601868 
	C164.128616,78.714172 164.053848,87.831650 164.230698,96.942490 
	C164.331146,102.116829 167.192245,103.773102 173.667740,101.852623 
	C171.774704,100.618744 170.534561,99.810417 169.118546,98.062706 
	C169.076080,89.430725 169.089294,80.797806 168.943451,72.167572 
	C168.914795,70.471085 168.271698,68.784988 167.402740,67.018555 
M251.350616,80.891418 
	C251.201111,79.717857 251.051620,78.544304 250.322906,77.017204 
	C249.875702,77.059525 249.428482,77.101845 248.116516,77.323769 
	C248.030319,85.252998 247.920242,93.182190 247.907166,101.111542 
	C247.906204,101.692375 248.606766,102.274376 249.637131,102.999779 
	C250.062546,102.898682 250.487976,102.797577 251.484741,102.148796 
	C251.660477,96.398689 251.836212,90.648575 252.469772,84.397545 
	C254.542999,81.092255 257.357544,79.522873 261.278748,80.767395 
	C265.370209,82.065941 264.671936,85.574318 264.726593,88.636322 
	C264.809479,93.280357 264.748260,97.926964 264.748260,102.737328 
	C265.980621,102.737328 267.046539,102.737328 268.244446,102.737328 
	C268.244446,96.663322 268.664154,90.808060 268.051819,85.062782 
	C267.781403,82.525436 265.888184,78.800522 263.891327,78.134575 
	C261.073029,77.194649 257.435638,78.407944 254.231735,79.091324 
	C253.111572,79.330246 252.238098,80.725754 251.350616,80.891418 
M175.500153,40.697281 
	C137.168274,40.697292 98.836388,40.693546 60.504509,40.701256 
	C54.581520,40.702446 53.666206,41.626648 53.664276,47.590279 
	C53.655640,74.255821 53.659065,100.921356 53.661518,127.586899 
	C53.662136,134.335724 54.385754,135.036026 61.329304,135.036057 
	C200.990067,135.036621 340.650818,135.036499 480.311584,135.036469 
	C481.144897,135.036469 481.984009,134.972000 482.810455,135.047241 
	C486.134552,135.349838 486.259888,133.632553 485.370178,130.845215 
	C414.157379,130.845215 343.021149,130.845230 271.884888,130.845230 
	C200.630157,130.845230 129.375427,130.845215 58.160515,130.845215 
	C58.160515,101.889320 58.160515,73.613411 58.160515,44.872818 
	C148.777756,44.872818 239.179840,44.872818 329.462158,44.872818 
	C330.913574,39.631706 327.389099,40.719727 324.993896,40.718372 
	C275.495972,40.690372 225.998077,40.697281 175.500153,40.697281 
M78.852768,76.534843 
	C77.941437,74.060417 77.030098,71.585999 76.158478,69.219406 
	C74.097832,69.219406 72.338318,69.219406 70.225723,69.219406 
	C70.225723,79.756088 70.149933,90.046738 70.343620,100.332321 
	C70.362877,101.354515 72.025230,102.345772 72.924988,103.351387 
	C73.357567,103.015060 73.790154,102.678734 74.222733,102.342407 
	C74.222733,93.873444 74.222733,85.404480 74.222733,76.935524 
	C77.798180,84.745499 80.578667,92.688744 83.581764,100.546913 
	C83.982376,101.595184 85.441490,102.702354 86.541245,102.858032 
	C87.281364,102.962807 88.591805,101.599167 89.051788,100.614403 
	C90.170952,98.218430 90.948975,95.662514 91.853973,93.167229 
	C93.725693,88.006477 95.590622,82.843262 97.458351,77.681061 
	C97.877472,77.782455 98.296593,77.883842 98.715714,77.985229 
	C98.715714,85.272644 98.757835,92.560432 98.693604,99.847275 
	C98.670097,102.513672 99.137238,104.124146 102.162949,102.293259 
	C102.162949,91.305504 102.162949,80.335838 102.162949,69.239822 
	C100.301689,69.239822 98.555367,69.239822 96.732635,69.239822 
	C93.401871,78.672302 90.146523,87.891197 86.440742,98.385704 
	C83.651878,90.414482 81.356483,83.853706 78.852768,76.534843 
M221.469849,99.981979 
	C226.399063,104.287575 229.774063,104.275055 235.764191,99.979225 
	C236.720596,100.892448 237.531693,102.246674 238.644974,102.574425 
	C239.872208,102.935738 241.376892,102.354622 242.760727,102.184036 
	C242.115555,101.295647 241.353027,100.467918 240.854599,99.503670 
	C240.215591,98.267441 239.442261,96.947662 239.341507,95.617325 
	C239.115875,92.638000 239.265350,89.629875 239.271652,86.633492 
	C239.279037,83.124168 239.628448,79.510948 235.373322,77.844482 
	C230.758774,76.037231 226.524704,76.786171 222.830536,79.882790 
	C222.086411,80.506561 222.300110,82.272980 222.061874,83.568604 
	C225.749268,82.196472 228.255356,80.738754 230.874603,80.494446 
	C232.347183,80.357101 234.006653,82.223618 235.581924,83.187370 
	C234.418365,84.505898 233.448257,86.118652 232.030624,87.050743 
	C230.876556,87.809532 229.181168,87.729713 227.735184,88.062431 
	C221.267670,89.550560 219.384262,92.738014 221.469849,99.981979 
M187.393768,68.976669 
	C184.628952,68.976669 181.864136,68.976669 179.104828,68.976669 
	C179.104828,80.607574 179.104828,91.659271 179.104828,102.848961 
	C180.283707,102.848961 182.066055,102.949081 182.079956,102.834496 
	C182.584045,98.682480 182.923477,94.510468 183.313858,90.016525 
	C186.194992,90.016525 188.991837,90.139389 191.774353,89.991852 
	C198.269897,89.647415 202.438522,84.652756 201.686264,78.275032 
	C200.911240,71.704262 197.029495,69.000053 187.393768,68.976669 
M146.905365,102.866638 
	C148.560928,101.892456 150.216507,100.918282 151.936676,99.906090 
	C152.641037,100.672333 153.275757,101.967361 154.204773,102.232925 
	C155.627274,102.639549 157.252594,102.336647 158.791824,102.334915 
	C158.106873,101.347160 157.300735,100.419785 156.770233,99.355087 
	C156.212509,98.235771 155.635193,97.001335 155.565369,95.788483 
	C155.393570,92.804161 155.520218,89.803299 155.504410,86.809196 
	C155.485947,83.315765 155.848877,79.646805 151.710968,77.907982 
	C147.153381,75.992798 142.887283,76.742020 139.137497,79.742157 
	C138.329590,80.388557 138.408752,82.143669 137.988785,83.730034 
	C141.751648,82.266678 144.243301,80.703308 146.836975,80.510216 
	C148.412415,80.392929 150.145447,82.392639 151.807693,83.441338 
	C150.541641,84.698456 149.481689,86.395706 147.960526,87.108017 
	C145.761002,88.137993 143.127029,88.207367 140.857864,89.128586 
	C136.584915,90.863251 134.666382,96.624611 137.813858,99.814911 
	C139.704880,101.731651 143.281845,101.985062 146.905365,102.866638 
M110.670464,85.467194 
	C110.505463,87.938667 109.992538,90.446442 110.245842,92.874268 
	C110.823441,98.410332 114.173309,101.958809 119.170532,102.909554 
	C124.491707,103.921936 128.386337,102.148369 130.961670,96.826492 
	C129.647766,96.766464 128.535278,97.359467 127.356377,97.558083 
	C124.269768,98.078079 120.825287,99.414696 118.155067,98.526642 
	C116.052353,97.827347 114.889870,94.300957 112.514915,90.888062 
	C120.046539,90.888062 125.793457,90.888062 131.476837,90.888062 
	C132.283188,83.084251 130.075226,78.795830 124.753654,77.267776 
	C118.976898,75.609024 113.687965,78.435776 110.670464,85.467194 
M311.022980,77.907990 
	C311.007416,83.403305 310.865479,88.901886 311.007202,94.393143 
	C311.199219,101.834557 318.058105,105.541817 324.298309,101.668518 
	C325.234192,101.087608 326.036591,100.291710 326.532867,99.891731 
	C327.854279,101.182205 328.997345,102.298538 330.140411,103.414879 
	C330.474945,103.111176 330.809448,102.807480 331.143982,102.503784 
	C331.143982,98.347557 331.144012,94.191338 331.144012,90.035110 
	C331.144012,85.768509 331.143982,81.501907 331.143982,77.235313 
	C330.603760,76.996002 330.063568,76.756691 329.523346,76.517380 
	C328.844360,77.606651 327.663513,78.656471 327.574219,79.792091 
	C327.209717,84.429192 327.441620,89.120682 326.946716,93.737785 
	C326.504730,97.861153 323.483612,99.832565 319.565582,99.591957 
	C315.546631,99.345146 314.642822,96.371902 314.747284,92.790489 
	C314.873474,88.464241 314.658020,84.127060 314.819794,79.803185 
	C314.918793,77.157204 313.737549,76.614548 311.022980,77.907990 
M359.993134,99.143494 
	C364.463837,104.389130 368.371246,104.541672 374.664795,99.957733 
	C375.812225,101.128975 376.940002,102.280174 378.930450,104.311920 
	C378.930450,94.120758 378.930450,85.698112 378.930450,77.275475 
	C378.483948,77.022530 378.037476,76.769592 377.590973,76.516655 
	C376.889526,77.589005 375.666718,78.619911 375.577637,79.740936 
	C375.208893,84.380516 375.437805,89.073936 374.955414,93.696259 
	C374.524597,97.824280 371.525757,99.814491 367.600830,99.593056 
	C363.581512,99.366302 362.641937,96.415871 362.747223,92.820038 
	C362.873962,88.491020 362.947571,84.144012 362.659546,79.830467 
	C362.584534,78.706947 361.078888,77.678963 360.230316,76.607101 
	C359.702759,76.922264 359.175232,77.237427 358.647675,77.552589 
	C359.001282,84.488396 359.354919,91.424194 359.993134,99.143494 
M339.880096,83.616058 
	C339.880096,90.039436 339.880096,96.462814 339.880096,102.886200 
	C340.490356,103.070976 341.100616,103.255753 341.710846,103.440529 
	C342.303864,102.282196 343.320557,101.156113 343.411652,99.959579 
	C343.701141,96.156158 343.479462,92.314232 343.759857,88.509621 
	C344.274017,81.532707 346.318115,79.913284 353.919281,80.736702 
	C353.626770,79.427528 353.269257,77.395050 353.161469,77.408211 
	C349.958252,77.799187 346.779755,78.392952 343.885742,78.903725 
	C342.986969,78.325073 341.806183,77.564827 339.880096,76.324738 
	C339.880096,79.351501 339.880096,81.005898 339.880096,83.616058 
M421.564667,97.289017 
	C421.294952,97.005356 421.025238,96.721687 420.755524,96.438026 
	C420.639069,96.550552 420.414490,96.753761 420.421783,96.762482 
	C420.672516,97.061348 420.945221,97.341820 421.564667,97.289017 
z"/>
<path fill="#E7E9EE" opacity="1.000000" stroke="none" 
	d="
M540.500000,166.000000 
	C540.098999,165.675079 540.282227,165.407898 540.774841,165.099243 
	C541.000000,165.333328 541.000000,165.666672 540.500000,166.000000 
z"/>
<path fill="#E7E9EE" opacity="1.000000" stroke="none" 
	d="
M1.000000,165.500000 
	C1.337445,165.079315 1.600080,165.264633 1.893952,165.777985 
	C1.666667,166.000000 1.333333,166.000000 1.000000,165.500000 
z"/>
<path fill="#E7E9EE" opacity="1.000000" stroke="none" 
	d="
M541.000000,1.500000 
	C540.662598,1.920696 540.399841,1.735454 540.105835,1.222137 
	C540.333313,1.000000 540.666687,1.000000 541.000000,1.500000 
z"/>
<path fill="#E7E9EE" opacity="1.000000" stroke="none" 
	d="
M1.500000,1.000000 
	C1.900578,1.324684 1.717308,1.591842 1.225096,1.900736 
	C1.000000,1.666667 1.000000,1.333333 1.500000,1.000000 
z"/>
<path fill="#030303" opacity="1.000000" stroke="none" 
	d="
M176.000153,40.697273 
	C225.998077,40.697281 275.495972,40.690372 324.993896,40.718372 
	C327.389099,40.719727 330.913574,39.631706 329.462158,44.872818 
	C239.179840,44.872818 148.777756,44.872818 58.160515,44.872818 
	C58.160515,73.613411 58.160515,101.889320 58.160515,130.845215 
	C129.375427,130.845215 200.630157,130.845230 271.884888,130.845230 
	C343.021149,130.845230 414.157379,130.845215 485.370178,130.845215 
	C486.259888,133.632553 486.134552,135.349838 482.810455,135.047241 
	C481.984009,134.972000 481.144897,135.036469 480.311584,135.036469 
	C340.650818,135.036499 200.990067,135.036621 61.329304,135.036057 
	C54.385754,135.036026 53.662136,134.335724 53.661518,127.586899 
	C53.659065,100.921356 53.655640,74.255821 53.664276,47.590279 
	C53.666206,41.626648 54.581520,40.702446 60.504509,40.701256 
	C98.836388,40.693546 137.168274,40.697292 176.000153,40.697273 
z"/>
<path fill="#E8E7DD" opacity="1.000000" stroke="none" 
	d="
M418.929993,102.770569 
	C419.806061,101.635071 420.448792,100.036423 421.603760,99.454552 
	C424.576843,97.956703 424.301727,96.972900 422.408295,94.373085 
	C420.995026,92.432556 420.364227,88.681259 421.290070,86.572876 
	C422.633148,83.514305 419.872864,83.818016 419.305939,81.927383 
	C419.918884,80.235466 421.008118,79.093498 420.946075,78.017929 
	C420.847534,76.309799 419.980286,74.646011 419.701691,72.894295 
	C419.598022,71.558739 419.230865,70.292351 418.863708,69.025970 
	C418.863708,69.025970 418.890839,68.898163 419.322357,68.924042 
	C422.992615,72.052864 426.319519,75.070976 429.427429,78.299896 
	C430.696259,79.618156 431.490570,81.393143 432.704620,83.254745 
	C437.312897,89.475304 442.202332,94.872993 449.857574,96.341927 
	C451.456451,96.648720 453.341431,95.464569 455.094543,94.967484 
	C456.981079,97.102470 458.867584,99.237450 460.524658,101.583405 
	C458.499359,103.608780 456.703461,105.423203 454.603210,107.427750 
	C452.848877,108.097359 450.745758,109.433769 450.059692,108.910881 
	C446.743835,106.383621 445.314301,109.098747 443.194397,111.050262 
	C434.130951,112.116692 425.589722,112.314308 423.193115,100.930283 
	C421.346924,101.727242 420.138458,102.248901 418.929993,102.770569 
z"/>
<path fill="#C59972" opacity="1.000000" stroke="none" 
	d="
M420.900055,56.340309 
	C416.046844,51.382118 416.110352,51.295078 422.139496,47.849525 
	C423.091827,47.305271 423.796539,45.890331 424.110535,44.740044 
	C425.703766,38.903156 430.263489,35.317970 436.761963,35.014027 
	C445.175842,34.620495 449.821075,37.135368 452.016541,43.235645 
	C452.847931,45.545792 452.764618,48.486160 456.636780,48.466278 
	C457.441895,48.462143 458.260132,51.016502 458.783142,52.889965 
	C458.321747,53.616096 458.146973,53.842052 457.969666,54.066036 
	C457.969666,54.066036 458.006989,53.984032 457.664734,53.991352 
	C455.960999,53.221668 454.599548,52.444664 452.165863,51.055695 
	C451.837128,52.793026 451.427917,54.955559 450.981323,57.516556 
	C450.655090,59.687012 450.366302,61.459011 449.726746,63.235733 
	C448.291412,63.327137 447.206818,63.413815 445.836761,63.340340 
	C445.044800,62.782593 444.538330,62.384991 443.862305,61.727623 
	C442.185150,61.664490 440.677551,61.861130 438.999451,62.116295 
	C438.480957,62.138535 438.132935,62.102249 437.577759,61.857182 
	C435.900696,61.760643 434.430847,61.872887 432.729797,62.038193 
	C432.498566,62.091251 432.050415,62.247112 431.698242,62.229549 
	C430.877594,62.251205 430.409119,62.290421 429.631348,62.257908 
	C428.864868,62.765167 428.407654,63.344158 427.730865,63.955437 
	C427.511261,63.987717 427.067932,63.962227 427.027649,63.589550 
	C426.187683,60.099018 425.388031,56.981167 424.652435,54.113068 
	C423.238312,54.952427 422.069183,55.646366 420.900055,56.340309 
z"/>
<path fill="#C39873" opacity="1.000000" stroke="none" 
	d="
M455.062256,94.974030 
	C453.341431,95.464569 451.456451,96.648720 449.857574,96.341927 
	C442.202332,94.872993 437.312897,89.475304 432.632263,82.941971 
	C432.199005,81.452835 432.041962,80.570908 431.739624,78.873070 
	C434.467102,80.845337 436.510956,82.323250 438.497192,83.759529 
	C442.644226,80.027924 446.501770,76.286011 450.670441,72.930611 
	C452.498840,71.458900 454.961884,70.775665 457.136749,69.734406 
	C457.136749,69.734406 457.137299,69.852898 457.220123,70.169510 
	C458.243195,71.042892 459.183472,71.599648 460.123749,72.156403 
	C460.217133,72.313133 460.310516,72.469872 460.444550,73.005386 
	C460.584808,73.662056 460.779144,73.769348 461.068237,73.706032 
	C461.106812,73.920753 461.145386,74.135475 461.249725,74.882843 
	C461.478149,75.716034 461.725616,75.825996 462.057892,75.745369 
	C462.057892,75.745369 462.115082,75.885429 462.195862,76.137749 
	C462.433777,76.693764 462.681793,76.822327 463.020691,76.775757 
	C465.878326,78.363625 468.735962,79.951492 471.960358,81.743149 
	C475.305511,76.438202 478.610382,71.197121 481.860535,66.042793 
	C478.486572,62.394955 478.319153,59.128643 481.700134,57.736832 
	C482.815033,57.587612 483.394501,57.148205 483.973969,56.708786 
	C484.701355,56.443810 485.428741,56.178837 486.841034,55.959690 
	C488.025513,55.994400 488.525055,55.983288 489.017059,55.983765 
	C489.009491,55.995346 489.033051,55.968910 489.074158,56.326820 
	C489.830048,57.221893 490.544830,57.759064 491.259644,58.296227 
	C489.754700,60.705395 487.980438,62.991203 486.807373,65.552383 
	C485.006439,69.484474 483.529114,73.574089 482.081909,77.656227 
	C480.731323,81.465889 479.673309,85.378769 478.345917,89.197334 
	C477.380066,91.975868 475.899017,93.398560 472.832916,91.219208 
	C468.834869,88.377411 464.634338,85.820473 460.117096,82.656593 
	C457.871887,81.052849 456.030487,79.933472 454.224579,78.835663 
	C450.865723,82.797699 454.985962,91.072777 446.191498,90.920219 
	C448.784119,91.282890 451.376709,91.645569 453.969299,92.008240 
	C453.969299,92.008240 454.346100,91.976440 454.368408,92.367020 
	C454.606567,93.476952 454.822388,94.196304 455.038208,94.915649 
	C455.038208,94.915657 455.029968,94.980576 455.062256,94.974030 
z"/>
<path fill="#190F11" opacity="1.000000" stroke="none" 
	d="
M78.956924,76.913887 
	C81.356483,83.853706 83.651878,90.414482 86.440742,98.385704 
	C90.146523,87.891197 93.401871,78.672302 96.732635,69.239822 
	C98.555367,69.239822 100.301689,69.239822 102.162949,69.239822 
	C102.162949,80.335838 102.162949,91.305504 102.162949,102.293259 
	C99.137238,104.124146 98.670097,102.513672 98.693604,99.847275 
	C98.757835,92.560432 98.715714,85.272644 98.715714,77.985229 
	C98.296593,77.883842 97.877472,77.782455 97.458351,77.681061 
	C95.590622,82.843262 93.725693,88.006477 91.853973,93.167229 
	C90.948975,95.662514 90.170952,98.218430 89.051788,100.614403 
	C88.591805,101.599167 87.281364,102.962807 86.541245,102.858032 
	C85.441490,102.702354 83.982376,101.595184 83.581764,100.546913 
	C80.578667,92.688744 77.798180,84.745499 74.222733,76.935524 
	C74.222733,85.404480 74.222733,93.873444 74.222733,102.342407 
	C73.790154,102.678734 73.357567,103.015060 72.924988,103.351387 
	C72.025230,102.345772 70.362877,101.354515 70.343620,100.332321 
	C70.149933,90.046738 70.225723,79.756088 70.225723,69.219406 
	C72.338318,69.219406 74.097832,69.219406 76.158478,69.219406 
	C77.030098,71.585999 77.941437,74.060417 78.956924,76.913887 
z"/>
<path fill="#E8E8E8" opacity="1.000000" stroke="none" 
	d="
M457.158020,69.413712 
	C454.961884,70.775665 452.498840,71.458900 450.670441,72.930611 
	C446.501770,76.286011 442.644226,80.027924 438.497192,83.759529 
	C436.510956,82.323250 434.467102,80.845337 431.739624,78.873070 
	C432.041962,80.570908 432.199005,81.452835 432.428406,82.647552 
	C431.490570,81.393143 430.696259,79.618156 429.427429,78.299896 
	C426.319519,75.070976 422.992615,72.052864 419.384888,68.905167 
	C416.798615,64.481445 420.740295,61.089069 420.900635,56.715691 
	C422.069183,55.646366 423.238312,54.952427 424.652435,54.113068 
	C425.388031,56.981167 426.187683,60.099018 426.818298,63.789459 
	C427.855621,67.395844 428.875305,70.869232 433.395874,66.999374 
	C434.892548,66.972298 435.983582,67.001213 437.407440,66.989578 
	C438.069916,66.223640 438.399597,65.498245 438.729248,64.772842 
	C438.127655,64.907906 437.526062,65.042969 436.549774,65.137276 
	C434.813446,65.393028 433.451782,65.689537 431.746643,65.959335 
	C430.252258,65.262802 429.101379,64.592979 427.950470,63.923153 
	C428.407654,63.344158 428.864868,62.765167 429.693207,62.524574 
	C430.726379,62.657688 431.388397,62.452400 432.050415,62.247112 
	C432.050415,62.247112 432.498566,62.091251 433.134766,62.052303 
	C435.108978,62.030891 436.446960,62.048431 437.784943,62.065968 
	C438.132935,62.102249 438.480957,62.138535 439.401337,62.110882 
	C441.326447,62.027092 442.679138,62.007240 444.031860,61.987389 
	C444.538330,62.384991 445.044800,62.782593 445.983337,63.591007 
	C446.585297,64.981232 446.755188,65.960640 446.786987,67.012779 
	C446.781372,67.076317 446.913849,67.067131 447.392090,67.003067 
	C448.517700,65.709129 449.297577,64.470070 450.077484,63.231010 
	C450.366302,61.459011 450.655090,59.687012 451.334869,57.465721 
	C452.822876,57.359497 453.919922,57.702560 455.016937,58.045624 
	C456.031281,59.371670 457.045593,60.697712 458.059937,62.023754 
	C457.730408,62.381962 457.400879,62.740166 457.071320,63.098373 
	C455.758667,62.221794 454.445984,61.345215 452.002960,59.713810 
	C452.550964,61.739536 452.506653,63.412212 453.247253,63.904778 
	C454.521301,64.752151 456.284485,64.864090 458.427155,65.442574 
	C458.187622,66.143356 457.683472,67.618187 457.158020,69.413712 
z"/>
<path fill="#C59872" opacity="1.000000" stroke="none" 
	d="
M418.571411,102.883240 
	C420.138458,102.248901 421.346924,101.727242 423.193115,100.930283 
	C425.589722,112.314308 434.130951,112.116692 443.495544,110.950592 
	C445.380524,110.246658 446.730347,109.927071 447.585785,109.724525 
	C449.581848,111.299332 451.263397,112.625992 452.973999,113.977875 
	C453.003052,114.003113 453.052002,114.062500 453.141296,114.189148 
	C453.351471,114.482361 453.483459,114.639526 454.032837,114.872604 
	C458.580658,116.546585 462.722290,118.135254 466.863953,119.723923 
	C463.179291,119.045586 459.236084,122.561386 455.122925,118.632843 
	C438.023224,118.141006 421.527374,118.053726 405.031555,117.966461 
	C400.088318,113.033485 400.980713,109.185509 407.549591,106.896500 
	C411.123138,105.651245 414.659637,104.299591 418.571411,102.883240 
z"/>
<path fill="#C29772" opacity="1.000000" stroke="none" 
	d="
M419.438202,72.963470 
	C419.980286,74.646011 420.847534,76.309799 420.946075,78.017929 
	C421.008118,79.093498 419.918884,80.235466 419.166138,81.630814 
	C414.257629,84.848938 409.504242,87.744896 404.809967,90.733704 
	C402.058441,92.485603 400.104279,92.568008 398.861176,88.950134 
	C397.388367,84.663490 395.730713,80.425041 393.882172,76.286766 
	C391.723694,71.454681 389.272583,66.753342 387.073181,61.343544 
	C389.125336,60.065182 391.052704,59.438549 393.244629,58.904404 
	C394.047913,58.968311 394.586639,58.939732 395.412292,58.908493 
	C396.081146,58.921669 396.463074,58.937504 396.844971,58.953339 
	C396.921844,60.546127 397.677704,63.031105 396.958801,63.578228 
	C393.737915,66.029434 396.089294,67.979881 397.225372,69.825424 
	C399.682373,73.816849 402.418213,77.636627 405.188812,81.747452 
	C407.449097,80.286507 409.886627,78.710991 412.982422,77.035873 
	C414.356598,75.930443 415.072479,74.924606 415.788361,73.918777 
	C415.788361,73.918770 415.892822,73.849937 416.199402,73.732468 
	C417.483398,73.397820 418.460785,73.180641 419.438202,72.963470 
z"/>
<path fill="#140A03" opacity="1.000000" stroke="none" 
	d="
M301.916046,73.794693 
	C301.826233,74.897766 301.736420,76.000839 301.639374,77.192436 
	C298.630463,75.369392 296.585175,74.130188 293.994934,72.544884 
	C292.919525,72.150093 292.389008,72.101402 291.858521,72.052719 
	C291.477417,72.115669 291.096313,72.178612 290.092896,72.112625 
	C288.643402,72.263878 287.816254,72.544075 286.989105,72.824272 
	C285.868713,73.514076 284.748352,74.203880 282.990051,75.127274 
	C278.404236,81.288986 277.692291,87.455063 280.987671,93.915817 
	C280.987671,93.915817 281.098022,93.977852 281.068604,94.342834 
	C281.652191,95.410759 282.265137,96.113693 282.878082,96.816635 
	C284.044800,97.525215 285.211487,98.233803 286.908569,99.304672 
	C288.041718,99.750320 288.644562,99.833679 289.247375,99.917038 
	C289.890625,99.862572 290.533844,99.808105 291.785339,99.863548 
	C292.906616,99.741035 293.419678,99.508614 293.932739,99.276192 
	C299.505615,97.567810 299.748810,93.216324 299.302917,88.015190 
	C297.007172,88.015190 294.722351,88.154190 292.470001,87.944427 
	C291.610413,87.864372 290.825256,86.985123 290.006195,86.470093 
	C290.781097,85.893181 291.531525,84.861488 292.335144,84.818222 
	C295.773926,84.633049 299.228455,84.739334 303.247833,84.739334 
	C303.247833,89.756645 303.368073,94.503502 303.168152,99.236832 
	C303.114227,100.513268 302.088531,101.748642 301.508850,103.002853 
	C300.901642,101.759766 300.294434,100.516670 299.517822,98.670700 
	C297.887848,99.328293 296.427277,100.588783 294.966705,101.849258 
	C292.542206,102.213066 290.117676,102.576881 287.133972,102.610100 
	C286.116913,102.173843 285.659058,102.068169 285.201202,101.962502 
	C279.257019,100.450531 277.300201,95.784058 276.426575,89.864594 
	C276.556915,86.921089 276.390198,84.608673 276.223480,82.296249 
	C276.815521,76.371025 279.535339,72.022072 286.038483,69.993744 
	C287.478455,69.733101 288.235107,69.448311 288.991730,69.163528 
	C290.066345,69.107704 291.140961,69.051880 292.846252,69.313232 
	C294.343781,69.742691 295.210602,69.854980 296.077454,69.967270 
	C297.324951,70.414886 298.572418,70.862503 300.035461,71.883728 
	C300.806000,72.903122 301.361023,73.348900 301.916046,73.794693 
z"/>
<path fill="#130E0F" opacity="1.000000" stroke="none" 
	d="
M221.266022,99.653122 
	C219.384262,92.738014 221.267670,89.550560 227.735184,88.062431 
	C229.181168,87.729713 230.876556,87.809532 232.030624,87.050743 
	C233.448257,86.118652 234.418365,84.505898 235.581924,83.187363 
	C234.006653,82.223618 232.347183,80.357101 230.874603,80.494446 
	C228.255356,80.738754 225.749268,82.196472 222.061874,83.568604 
	C222.300110,82.272980 222.086411,80.506561 222.830536,79.882790 
	C226.524704,76.786171 230.758774,76.037231 235.373322,77.844482 
	C239.628448,79.510948 239.279037,83.124168 239.271652,86.633492 
	C239.265350,89.629875 239.115875,92.638000 239.341507,95.617325 
	C239.442261,96.947662 240.215591,98.267441 240.854599,99.503670 
	C241.353027,100.467918 242.115555,101.295647 242.760727,102.184036 
	C241.376892,102.354622 239.872208,102.935738 238.644974,102.574425 
	C237.531693,102.246674 236.720596,100.892448 235.764191,99.979225 
	C229.774063,104.275055 226.399063,104.287575 221.266022,99.653122 
M233.506088,98.002510 
	C234.512375,95.294373 235.518661,92.586227 236.724945,89.339836 
	C232.773621,90.129097 229.956909,90.196236 227.660110,91.323120 
	C226.105621,92.085800 224.213593,94.502022 224.423737,95.881447 
	C224.647583,97.350914 227.001846,98.893600 228.750122,99.586853 
	C229.833054,100.016289 231.519684,98.923294 233.506088,98.002510 
z"/>
<path fill="#C89B73" opacity="1.000000" stroke="none" 
	d="
M467.260925,119.793243 
	C462.722290,118.135254 458.580658,116.546585 453.977234,114.727097 
	C453.348297,114.365204 453.193817,114.220612 453.052002,114.062500 
	C453.052002,114.062500 453.003052,114.003113 452.873413,113.599480 
	C454.125763,112.174446 455.507782,111.153046 456.318878,110.553596 
	C455.956085,109.701134 455.431824,108.469383 454.907593,107.237625 
	C456.703461,105.423203 458.499359,103.608780 460.675507,101.833344 
	C465.078979,103.567932 469.303436,104.917305 473.047150,107.093666 
	C475.171265,108.328491 477.872742,110.960968 477.812622,112.885849 
	C477.753204,114.787827 474.728607,116.846245 472.651276,118.346596 
	C471.317535,119.309860 469.344391,119.387779 467.260925,119.793243 
z"/>
<path fill="#0C0A15" opacity="1.000000" stroke="none" 
	d="
M187.866379,68.976669 
	C197.029495,69.000053 200.911240,71.704262 201.686264,78.275032 
	C202.438522,84.652756 198.269897,89.647415 191.774353,89.991852 
	C188.991837,90.139389 186.194992,90.016525 183.313858,90.016525 
	C182.923477,94.510468 182.584045,98.682480 182.079956,102.834496 
	C182.066055,102.949081 180.283707,102.848961 179.104828,102.848961 
	C179.104828,91.659271 179.104828,80.607574 179.104828,68.976669 
	C181.864136,68.976669 184.628952,68.976669 187.866379,68.976669 
M191.747620,72.330093 
	C188.975250,72.330093 186.202866,72.330093 183.155609,72.330093 
	C183.155609,77.204445 183.155609,81.732185 183.155609,86.749886 
	C185.628281,86.749886 187.901978,86.828026 190.168304,86.731888 
	C193.716919,86.581360 196.812485,85.605934 197.364731,81.440697 
	C197.903412,77.377655 197.465408,73.721924 191.747620,72.330093 
z"/>
<path fill="#130E0F" opacity="1.000000" stroke="none" 
	d="
M146.503235,102.926315 
	C143.281845,101.985062 139.704880,101.731651 137.813858,99.814911 
	C134.666382,96.624611 136.584915,90.863251 140.857864,89.128586 
	C143.127029,88.207367 145.761002,88.137993 147.960526,87.108017 
	C149.481689,86.395706 150.541641,84.698456 151.807693,83.441338 
	C150.145447,82.392639 148.412415,80.392929 146.836975,80.510216 
	C144.243301,80.703308 141.751648,82.266678 137.988785,83.730034 
	C138.408752,82.143669 138.329590,80.388557 139.137497,79.742157 
	C142.887283,76.742020 147.153381,75.992798 151.710968,77.907982 
	C155.848877,79.646805 155.485947,83.315765 155.504410,86.809196 
	C155.520218,89.803299 155.393570,92.804161 155.565369,95.788483 
	C155.635193,97.001335 156.212509,98.235771 156.770233,99.355087 
	C157.300735,100.419785 158.106873,101.347160 158.791824,102.334915 
	C157.252594,102.336647 155.627274,102.639549 154.204773,102.232925 
	C153.275757,101.967361 152.641037,100.672333 151.936676,99.906090 
	C150.216507,100.918282 148.560928,101.892456 146.503235,102.926315 
M144.674133,99.725632 
	C151.096741,98.440994 152.661942,96.064232 151.431686,89.567268 
	C149.342972,90.039772 147.086197,90.172638 145.205719,91.082870 
	C143.358765,91.976868 141.203735,93.393593 140.541473,95.105972 
	C140.189560,96.015884 142.715897,98.038940 144.674133,99.725632 
z"/>
<path fill="#110C0E" opacity="1.000000" stroke="none" 
	d="
M110.774742,85.075241 
	C113.687965,78.435776 118.976898,75.609024 124.753654,77.267776 
	C130.075226,78.795830 132.283188,83.084251 131.476837,90.888062 
	C125.793457,90.888062 120.046539,90.888062 112.514915,90.888062 
	C114.889870,94.300957 116.052353,97.827347 118.155067,98.526642 
	C120.825287,99.414696 124.269768,98.078079 127.356377,97.558083 
	C128.535278,97.359467 129.647766,96.766464 130.961670,96.826492 
	C128.386337,102.148369 124.491707,103.921936 119.170532,102.909554 
	C114.173309,101.958809 110.823441,98.410332 110.245842,92.874268 
	C109.992538,90.446442 110.505463,87.938667 110.774742,85.075241 
M114.815598,84.478752 
	C113.874176,86.548531 113.862259,87.926865 116.809601,87.815460 
	C120.429184,87.678650 124.057877,87.782822 127.682632,87.782822 
	C128.059341,87.379929 128.436035,86.977036 128.812744,86.574142 
	C127.257332,84.660484 126.069778,82.061241 124.064804,80.985443 
	C120.605026,79.129059 117.363113,80.473015 114.815598,84.478752 
z"/>
<path fill="#120E19" opacity="1.000000" stroke="none" 
	d="
M311.261780,77.512314 
	C313.737549,76.614548 314.918793,77.157204 314.819794,79.803185 
	C314.658020,84.127060 314.873474,88.464241 314.747284,92.790489 
	C314.642822,96.371902 315.546631,99.345146 319.565582,99.591957 
	C323.483612,99.832565 326.504730,97.861153 326.946716,93.737785 
	C327.441620,89.120682 327.209717,84.429192 327.574219,79.792091 
	C327.663513,78.656471 328.844360,77.606651 329.523346,76.517380 
	C330.063568,76.756691 330.603760,76.996002 331.143982,77.235313 
	C331.143982,81.501907 331.144012,85.768509 331.144012,90.035110 
	C331.144012,94.191338 331.143982,98.347557 331.143982,102.503784 
	C330.809448,102.807480 330.474945,103.111176 330.140411,103.414879 
	C328.997345,102.298538 327.854279,101.182205 326.532867,99.891731 
	C326.036591,100.291710 325.234192,101.087608 324.298309,101.668518 
	C318.058105,105.541817 311.199219,101.834557 311.007202,94.393143 
	C310.865479,88.901886 311.007416,83.403305 311.261780,77.512314 
z"/>
<path fill="#120E19" opacity="1.000000" stroke="none" 
	d="
M359.850830,98.751747 
	C359.354919,91.424194 359.001282,84.488396 358.647675,77.552589 
	C359.175232,77.237427 359.702759,76.922264 360.230316,76.607101 
	C361.078888,77.678963 362.584534,78.706947 362.659546,79.830467 
	C362.947571,84.144012 362.873962,88.491020 362.747223,92.820038 
	C362.641937,96.415871 363.581512,99.366302 367.600830,99.593056 
	C371.525757,99.814491 374.524597,97.824280 374.955414,93.696259 
	C375.437805,89.073936 375.208893,84.380516 375.577637,79.740936 
	C375.666718,78.619911 376.889526,77.589005 377.590973,76.516655 
	C378.037476,76.769592 378.483948,77.022530 378.930450,77.275475 
	C378.930450,85.698112 378.930450,94.120758 378.930450,104.311920 
	C376.940002,102.280174 375.812225,101.128975 374.664795,99.957733 
	C368.371246,104.541672 364.463837,104.389130 359.850830,98.751747 
z"/>
<path fill="#09080A" opacity="1.000000" stroke="none" 
	d="
M250.913391,102.696472 
	C250.487976,102.797577 250.062546,102.898682 249.301605,102.468483 
	C248.971161,93.672844 248.976212,85.408508 248.981277,77.144165 
	C249.428482,77.101845 249.875702,77.059525 250.587219,77.497681 
	C250.985001,79.183128 251.118484,80.388107 251.251968,81.593079 
	C252.238098,80.725754 253.111572,79.330246 254.231735,79.091324 
	C257.435638,78.407944 261.073029,77.194649 263.891327,78.134575 
	C265.888184,78.800522 267.781403,82.525436 268.051819,85.062782 
	C268.664154,90.808060 268.244446,96.663322 268.244446,102.737328 
	C267.046539,102.737328 265.980621,102.737328 264.748260,102.737328 
	C264.748260,97.926964 264.809479,93.280357 264.726593,88.636322 
	C264.671936,85.574318 265.370209,82.065941 261.278748,80.767395 
	C257.357544,79.522873 254.542999,81.092255 251.942551,84.959122 
	C251.248016,91.245949 251.080704,96.971214 250.913391,102.696472 
z"/>
<path fill="#ECA34D" opacity="1.000000" stroke="none" 
	d="
M400.042450,22.961914 
	C405.535828,27.448627 406.507416,30.125296 403.574371,34.088615 
	C403.184814,34.412025 402.902496,34.443928 402.479767,34.269566 
	C398.369659,34.004456 394.682251,33.913708 390.957092,33.499893 
	C390.145660,30.905226 389.271027,28.661404 388.635651,26.351772 
	C388.244965,24.931610 388.219971,23.410841 388.417480,21.936588 
	C392.550232,22.279261 396.296356,22.620588 400.042450,22.961914 
z"/>
<path fill="#0E070D" opacity="1.000000" stroke="none" 
	d="
M339.880096,83.138176 
	C339.880096,81.005898 339.880096,79.351501 339.880096,76.324738 
	C341.806183,77.564827 342.986969,78.325073 343.885742,78.903725 
	C346.779755,78.392952 349.958252,77.799187 353.161469,77.408211 
	C353.269257,77.395050 353.626770,79.427528 353.919281,80.736702 
	C346.318115,79.913284 344.274017,81.532707 343.759857,88.509621 
	C343.479462,92.314232 343.701141,96.156158 343.411652,99.959579 
	C343.320557,101.156113 342.303864,102.282196 341.710846,103.440529 
	C341.100616,103.255753 340.490356,103.070976 339.880096,102.886200 
	C339.880096,96.462814 339.880096,90.039436 339.880096,83.138176 
z"/>
<path fill="#341C04" opacity="1.000000" stroke="none" 
	d="
M169.294403,99.002090 
	C170.534561,99.810417 171.774704,100.618744 173.667740,101.852623 
	C167.192245,103.773102 164.331146,102.116829 164.230698,96.942490 
	C164.053848,87.831650 164.128616,78.714172 164.261719,69.601868 
	C164.274643,68.716599 165.432892,67.848068 166.491791,67.508347 
	C166.927124,76.121307 166.860016,84.198753 166.981903,92.273338 
	C167.012848,94.323082 167.645050,96.363739 168.189941,98.560448 
	C168.643173,98.937859 168.948349,99.034454 169.294403,99.002090 
z"/>
<path fill="#341C04" opacity="1.000000" stroke="none" 
	d="
M213.294403,99.002090 
	C214.534561,99.810417 215.774704,100.618752 217.667740,101.852631 
	C211.192245,103.773109 208.331146,102.116844 208.230698,96.942490 
	C208.053848,87.831650 208.128616,78.714172 208.261719,69.601868 
	C208.274643,68.716606 209.432892,67.848076 210.491791,67.508347 
	C210.927124,76.121307 210.860016,84.198753 210.981903,92.273338 
	C211.012833,94.323082 211.645050,96.363739 212.189941,98.560448 
	C212.643173,98.937859 212.948349,99.034454 213.294403,99.002090 
z"/>
<path fill="#D99042" opacity="1.000000" stroke="none" 
	d="
M392.980103,58.811920 
	C391.052704,59.438549 389.125336,60.065182 386.979218,61.017319 
	C384.929810,60.970512 383.053711,60.149166 381.278809,60.328632 
	C378.447632,60.614899 375.683807,61.566917 372.322571,61.861824 
	C371.173920,61.028080 370.594147,60.569935 370.376526,60.029526 
	C372.178467,58.330765 373.618256,56.714264 375.297363,55.059189 
	C375.536652,55.020615 376.001068,54.881519 376.363647,54.938492 
	C380.595734,53.011005 384.536407,51.313290 389.011536,52.250008 
	C389.013123,52.979282 389.056244,53.395599 389.056061,54.173607 
	C389.008911,55.020561 389.005066,55.505829 389.066406,56.348053 
	C390.413818,57.132191 391.696045,57.559380 392.971008,58.192921 
	C392.963776,58.399277 392.980103,58.811920 392.980103,58.811920 
z"/>
<path fill="#325B0D" opacity="1.000000" stroke="none" 
	d="
M342.835724,41.884521 
	C342.800446,40.830582 342.765167,39.776642 342.841309,38.174313 
	C343.005188,37.434860 343.057648,37.243805 343.321136,37.017929 
	C343.532135,36.983109 343.935516,36.840900 344.315430,37.019379 
	C351.166565,37.544182 357.635406,38.078129 364.109894,38.158115 
	C367.373413,38.198433 370.647156,37.415600 373.919495,37.318169 
	C374.602753,39.131199 375.282745,40.631050 375.960907,42.406361 
	C375.678314,43.129143 375.397552,43.576462 374.878967,43.835819 
	C371.729797,42.801815 368.818481,41.955769 365.600891,40.974846 
	C361.613129,40.969337 357.931610,41.098698 353.855774,41.163860 
	C351.669983,41.764618 349.878571,42.429581 347.768524,43.030342 
	C345.911865,42.605602 344.373779,42.245060 342.835724,41.884521 
z"/>
<path fill="#92C684" opacity="1.000000" stroke="none" 
	d="
M342.506165,42.029076 
	C344.373779,42.245060 345.911865,42.605602 347.910461,43.323547 
	C350.247314,45.374752 352.123566,47.068546 353.785156,48.942635 
	C353.332306,49.409279 353.094177,49.695637 352.512848,50.016777 
	C350.553131,50.748184 348.936646,51.444809 346.897461,52.091545 
	C345.340973,52.007408 344.207153,51.973164 342.922791,51.648319 
	C341.809570,50.537617 340.846954,49.717514 339.884338,48.897415 
	C340.648438,46.656151 341.412506,44.414894 342.506165,42.029076 
z"/>
<path fill="#F0C359" opacity="1.000000" stroke="none" 
	d="
M360.031982,61.416260 
	C351.442535,63.826721 346.743134,62.366966 343.110504,55.590202 
	C343.943665,54.802959 344.484589,54.494728 345.361938,54.153725 
	C346.129974,54.232498 346.561554,54.344048 347.253784,54.692028 
	C351.270294,55.578465 355.026184,56.228462 359.070740,57.002419 
	C359.551331,57.483910 359.743256,57.841442 359.633789,58.274399 
	C359.518402,59.182846 359.704407,60.015865 359.923065,60.991402 
	C359.955750,61.133926 360.031982,61.416260 360.031982,61.416260 
z"/>
<path fill="#2E2927" opacity="1.000000" stroke="none" 
	d="
M405.121277,118.365555 
	C421.527374,118.053726 438.023224,118.141006 454.751129,118.589447 
	C446.526093,119.085297 438.064301,119.100266 429.614960,119.432861 
	C427.294891,119.524193 425.013062,120.569206 422.711731,121.169044 
	C422.099457,121.328636 421.176086,121.796280 420.908752,121.554672 
	C416.235779,117.331123 410.254791,120.668716 405.121277,118.365555 
z"/>
<path fill="#495F1D" opacity="1.000000" stroke="none" 
	d="
M402.902496,34.443924 
	C402.902496,34.443928 403.184814,34.412025 403.312531,34.349586 
	C405.056763,34.421410 406.153381,34.542339 405.847870,36.936855 
	C405.681122,38.243793 407.405396,39.792007 407.910400,41.600266 
	C406.934479,41.967266 406.324982,41.965424 405.419434,41.937347 
	C404.060944,41.935928 402.998596,41.960747 401.609497,41.809792 
	C398.843506,41.026730 396.404236,40.419437 394.170593,39.585732 
	C395.571625,38.577496 396.766998,37.795662 398.318787,37.034504 
	C399.456024,36.710369 400.236755,36.365566 401.295593,35.992538 
	C402.016571,35.457512 402.459534,34.950718 402.902496,34.443924 
z"/>
<path fill="#D18D42" opacity="1.000000" stroke="none" 
	d="
M397.025452,58.663334 
	C396.463074,58.937504 396.081146,58.921669 395.293640,58.637718 
	C394.588867,58.130371 394.289642,57.891140 393.991028,57.503128 
	C393.991608,57.354343 393.995911,57.053448 393.997864,56.677479 
	C394.018585,55.800842 394.037354,55.300175 394.402466,54.813683 
	C395.515045,53.809124 396.281219,52.790382 397.156250,51.579723 
	C397.483459,51.017246 397.701843,50.646690 398.250458,50.118713 
	C399.721252,49.622997 400.861755,49.284710 402.373352,49.015022 
	C403.770630,49.757034 404.796844,50.430447 405.823059,51.103859 
	C402.950653,53.527016 400.078278,55.950172 397.025452,58.663334 
z"/>
<path fill="#54A615" opacity="1.000000" stroke="none" 
	d="
M406.001587,51.405830 
	C404.796844,50.430447 403.770630,49.757034 402.404785,48.665535 
	C403.281952,46.152832 404.498749,44.058205 405.715515,41.963577 
	C406.324982,41.965424 406.934479,41.967266 408.003113,41.963825 
	C415.053192,43.970066 409.198273,48.162258 410.077087,51.174614 
	C408.778107,51.352345 407.479095,51.530071 406.001587,51.405830 
z"/>
<path fill="#E2C97C" opacity="1.000000" stroke="none" 
	d="
M399.866608,22.664352 
	C396.296356,22.620588 392.550232,22.279261 388.200043,21.682310 
	C386.723236,21.296604 385.850525,21.166523 384.609253,21.017178 
	C383.106537,21.301491 381.972382,21.605066 380.648865,21.895344 
	C380.459503,21.882044 380.082275,21.838951 380.060730,21.494488 
	C380.005646,20.461838 379.972107,19.773651 379.938599,19.085468 
	C383.587982,18.897993 387.322479,18.152552 390.860962,18.692274 
	C393.919891,19.158850 396.756104,21.085541 399.866608,22.664352 
z"/>
<path fill="#594A41" opacity="1.000000" stroke="none" 
	d="
M453.990692,91.558899 
	C451.376709,91.645569 448.784119,91.282890 446.191498,90.920219 
	C454.985962,91.072777 450.865723,82.797699 454.224579,78.835663 
	C456.030487,79.933472 457.871887,81.052849 459.785614,82.505089 
	C458.215332,82.400307 456.572693,81.962662 454.012085,81.280426 
	C454.012085,84.683739 454.012085,87.896645 453.990692,91.558899 
z"/>
<path fill="#F9CD5C" opacity="1.000000" stroke="none" 
	d="
M343.935516,36.840900 
	C343.935516,36.840900 343.532135,36.983109 342.892578,37.001305 
	C340.822266,36.996147 339.391510,36.972794 337.960693,36.949440 
	C339.067444,34.705975 340.174194,32.462517 341.718567,30.313393 
	C342.442535,30.277697 342.728882,30.147665 343.015228,30.017635 
	C343.263214,29.829504 343.498413,29.626535 344.258301,29.219130 
	C345.577301,28.972250 346.358826,28.914972 347.107452,29.121672 
	C347.074768,29.561501 347.074951,29.737354 346.858337,30.186010 
	C342.954559,31.339714 344.549500,33.816906 344.772156,36.044868 
	C344.295166,36.326683 344.086914,36.558208 343.935516,36.840900 
z"/>
<path fill="#B2FCFF" opacity="1.000000" stroke="none" 
	d="
M169.206482,98.532394 
	C168.948349,99.034454 168.643173,98.937859 168.189255,98.043129 
	C167.970383,87.280663 167.941177,77.187378 167.911957,67.094101 
	C168.271698,68.784988 168.914795,70.471085 168.943451,72.167572 
	C169.089294,80.797806 169.076080,89.430725 169.206482,98.532394 
z"/>
<path fill="#B2FCFF" opacity="1.000000" stroke="none" 
	d="
M213.206482,98.532394 
	C212.948349,99.034454 212.643173,98.937859 212.189255,98.043129 
	C211.970398,87.280663 211.941177,77.187378 211.911957,67.094101 
	C212.271698,68.784988 212.914780,70.471085 212.943451,72.167572 
	C213.089294,80.797806 213.076080,89.430725 213.206482,98.532394 
z"/>
<path fill="#00005A" opacity="1.000000" stroke="none" 
	d="
M167.657349,67.056328 
	C167.941177,77.187378 167.970383,87.280663 168.000290,97.891258 
	C167.645050,96.363739 167.012848,94.323082 166.981903,92.273338 
	C166.860016,84.198753 166.927124,76.121307 166.911377,67.583923 
	C167.066681,67.088127 167.234711,67.053337 167.657349,67.056328 
z"/>
<path fill="#00005A" opacity="1.000000" stroke="none" 
	d="
M211.657349,67.056328 
	C211.941177,77.187378 211.970398,87.280663 212.000290,97.891258 
	C211.645050,96.363739 211.012833,94.323082 210.981903,92.273338 
	C210.860016,84.198753 210.927124,76.121307 210.911377,67.583923 
	C211.066681,67.088127 211.234711,67.053337 211.657349,67.056328 
z"/>
<path fill="#594A41" opacity="1.000000" stroke="none" 
	d="
M455.098267,57.702896 
	C453.919922,57.702560 452.822876,57.359497 451.372314,57.067265 
	C451.427917,54.955559 451.837128,52.793026 452.165863,51.055695 
	C454.599548,52.444664 455.960999,53.221668 457.706451,54.008308 
	C457.120148,55.132019 456.149841,56.246090 455.098267,57.702896 
z"/>
<path fill="#111626" opacity="1.000000" stroke="none" 
	d="
M248.548889,77.233963 
	C248.976212,85.408508 248.971161,93.672844 248.973633,102.396515 
	C248.606766,102.274376 247.906204,101.692375 247.907166,101.111542 
	C247.920242,93.182190 248.030319,85.252998 248.548889,77.233963 
z"/>
<path fill="#120D13" opacity="1.000000" stroke="none" 
	d="
M280.984863,93.497757 
	C277.692291,87.455063 278.404236,81.288986 282.685791,75.258789 
	C279.386078,80.795204 279.340363,86.841545 280.984863,93.497757 
z"/>
<path fill="#735C49" opacity="1.000000" stroke="none" 
	d="
M488.873169,53.819771 
	C490.389618,53.533424 491.906067,53.247074 494.174103,52.818806 
	C493.955719,54.473507 493.748077,56.046543 493.146790,57.371399 
	C491.513092,56.738441 490.273071,56.353676 489.033051,55.968910 
	C489.033051,55.968910 489.009491,55.995346 489.000305,55.624825 
	C488.951813,54.776127 488.912476,54.297947 488.873169,53.819771 
z"/>
<path fill="#C63014" opacity="1.000000" stroke="none" 
	d="
M346.993164,54.455593 
	C346.561554,54.344048 346.129974,54.232498 344.999390,54.090012 
	C343.228180,54.388031 342.155975,54.716980 341.083771,55.045925 
	C339.971466,54.649017 338.859131,54.252113 338.033447,53.431236 
	C338.905365,52.644138 339.490601,52.281017 340.450928,51.926567 
	C341.575104,51.936462 342.324219,51.937691 343.073364,51.938919 
	C344.207153,51.973164 345.340973,52.007408 346.825989,52.473595 
	C347.115875,53.422222 347.054504,53.938908 346.993164,54.455593 
z"/>
<path fill="#E5DD98" opacity="1.000000" stroke="none" 
	d="
M374.327911,19.999584 
	C375.146515,19.568804 375.965149,19.138021 376.905304,19.254002 
	C376.963470,20.495249 376.900085,21.189735 376.544189,21.914293 
	C375.860382,21.984896 375.469086,22.025427 374.658722,22.039816 
	C372.066681,22.328123 369.893677,22.642572 367.681854,22.714853 
	C367.451508,22.020224 367.260040,21.567759 367.421997,21.069887 
	C368.484192,20.957573 369.192932,20.890665 370.278107,20.874439 
	C371.879028,20.616611 373.103455,20.308098 374.327911,19.999584 
z"/>
<path fill="#111626" opacity="1.000000" stroke="none" 
	d="
M251.199066,102.422638 
	C251.080704,96.971214 251.248016,91.245949 251.713638,85.209579 
	C251.836212,90.648575 251.660477,96.398689 251.199066,102.422638 
z"/>
<path fill="#C17834" opacity="1.000000" stroke="none" 
	d="
M370.014404,60.111794 
	C370.594147,60.569935 371.173920,61.028080 371.901062,61.727158 
	C369.033661,62.045013 366.018829,62.121933 362.599365,61.736023 
	C363.147461,60.838036 364.100220,60.402870 365.030182,59.980541 
	C365.007416,59.993378 364.992828,59.944778 365.172028,60.225670 
	C366.244080,60.245251 367.136932,59.983940 368.186646,59.560516 
	C368.752655,59.254440 369.161835,59.110470 369.660828,59.260956 
	C369.838623,59.740871 369.926514,59.926334 370.014404,60.111794 
z"/>
<path fill="#E5DD98" opacity="1.000000" stroke="none" 
	d="
M347.140320,28.857697 
	C346.358826,28.914972 345.577301,28.972250 344.403992,29.037251 
	C344.349060,28.097958 344.685944,27.150944 345.413330,26.436607 
	C346.200134,26.424515 346.596405,26.179739 346.992706,25.934963 
	C346.992706,25.934963 346.996918,25.997393 347.286438,26.156137 
	C348.055603,26.286036 348.535278,26.257189 349.126526,26.396572 
	C349.417114,26.779596 349.642456,26.920179 349.790344,27.236677 
	C349.596741,27.659220 349.526855,27.831635 349.318970,27.966465 
	C349.181000,27.928885 348.898682,27.974594 348.660339,28.049955 
	C347.994781,28.369444 347.567566,28.613573 347.140320,28.857697 
z"/>
<path fill="#E8E8E8" opacity="1.000000" stroke="none" 
	d="
M419.701691,72.894287 
	C418.460785,73.180641 417.483398,73.397820 416.194946,73.670074 
	C416.651550,72.166084 417.419189,70.607018 418.525269,69.036957 
	C419.230865,70.292351 419.598022,71.558739 419.701691,72.894287 
z"/>
<path fill="#84200F" opacity="1.000000" stroke="none" 
	d="
M342.922791,51.648319 
	C342.324219,51.937691 341.575104,51.936462 340.166962,51.804790 
	C338.729584,51.521481 337.951233,51.368614 337.172852,51.215752 
	C337.865662,50.507240 338.558441,49.798729 339.567810,48.993816 
	C340.846954,49.717514 341.809570,50.537617 342.922791,51.648319 
z"/>
<path fill="#F9CD5C" opacity="1.000000" stroke="none" 
	d="
M376.836700,21.884220 
	C376.900085,21.189735 376.963470,20.495249 377.041748,19.453653 
	C377.778320,19.070234 378.499969,19.033928 379.580139,19.041542 
	C379.972107,19.773651 380.005646,20.461838 379.656982,21.545223 
	C378.462097,21.921688 377.649414,21.902954 376.836700,21.884220 
z"/>
<path fill="#F4C659" opacity="1.000000" stroke="none" 
	d="
M338.037109,37.284378 
	C339.391510,36.972794 340.822266,36.996147 342.681580,37.036125 
	C343.057648,37.243805 343.005188,37.434860 342.805664,37.883675 
	C341.143585,37.967388 339.628540,37.793350 338.037109,37.284378 
z"/>
<path fill="#120D13" opacity="1.000000" stroke="none" 
	d="
M276.100098,82.688202 
	C276.390198,84.608673 276.556915,86.921089 276.468872,89.474915 
	C276.135010,87.504272 276.055847,85.292213 276.100098,82.688202 
z"/>
<path fill="#9E7C5F" opacity="1.000000" stroke="none" 
	d="
M489.074158,56.326817 
	C490.273071,56.353676 491.513092,56.738441 492.863098,57.522015 
	C492.553192,58.039894 492.133331,58.158966 491.486572,58.287132 
	C490.544830,57.759064 489.830048,57.221893 489.074158,56.326817 
z"/>
<path fill="#120D13" opacity="1.000000" stroke="none" 
	d="
M295.386658,101.792984 
	C296.427277,100.588783 297.887848,99.328293 299.466125,98.175797 
	C298.324768,99.434746 297.065704,100.585716 295.386658,101.792984 
z"/>
<path fill="#63511A" opacity="1.000000" stroke="none" 
	d="
M365.052948,59.967709 
	C364.100220,60.402870 363.147461,60.838036 362.166077,61.619415 
	C361.800323,61.871010 361.463226,61.776382 361.075500,61.106377 
	C361.048279,60.091217 361.071716,59.651440 361.329498,59.032166 
	C362.726868,59.224358 363.889893,59.596035 365.052948,59.967709 
z"/>
<path fill="#9E7C5F" opacity="1.000000" stroke="none" 
	d="
M374.163361,19.668861 
	C373.103455,20.308098 371.879028,20.616611 370.292786,20.606970 
	C369.939880,20.110300 369.948761,19.931786 369.957611,19.753273 
	C371.304688,19.614895 372.651733,19.476519 374.163361,19.668861 
z"/>
<path fill="#E8E8E8" opacity="1.000000" stroke="none" 
	d="
M415.477112,73.981598 
	C415.072479,74.924606 414.356598,75.930443 413.303467,76.902023 
	C413.699432,75.926643 414.432648,74.985535 415.477112,73.981598 
z"/>
<path fill="#594A41" opacity="1.000000" stroke="none" 
	d="
M353.059204,23.205505 
	C354.148438,22.858257 355.237640,22.511009 356.666992,22.358442 
	C357.007080,22.553123 357.001160,22.946491 356.954773,23.251400 
	C356.938660,23.759592 356.968933,23.962877 356.602234,24.088768 
	C355.155701,24.204109 354.106171,24.396845 353.071838,24.243587 
	C353.077789,23.666899 353.068512,23.436201 353.059204,23.205505 
z"/>
<path fill="#91BF3D" opacity="1.000000" stroke="none" 
	d="
M361.095184,59.211658 
	C361.071716,59.651440 361.048279,60.091217 360.962463,60.855949 
	C360.900116,61.180901 360.437347,61.189014 360.234680,61.302635 
	C360.031982,61.416260 359.955750,61.133926 359.935364,60.659519 
	C359.921692,59.523067 359.928436,58.861027 359.935181,58.198975 
	C359.743256,57.841442 359.551331,57.483910 359.253296,56.739319 
	C359.737854,56.389832 360.328522,56.427410 360.942810,56.803993 
	C361.009369,57.832550 361.052277,58.522106 361.095184,59.211658 
z"/>
<path fill="#9E7C5F" opacity="1.000000" stroke="none" 
	d="
M352.775269,23.204929 
	C353.068512,23.436201 353.077789,23.666899 353.059082,24.385971 
	C353.031097,24.874344 352.874634,25.120022 352.694855,25.110342 
	C352.169037,25.074329 351.855774,25.156036 351.166992,25.487862 
	C350.476990,25.690559 350.195251,25.751181 349.918274,25.454659 
	C349.930389,24.859512 349.937714,24.621510 349.945068,24.383511 
	C350.793823,23.990461 351.642548,23.597410 352.775269,23.204929 
z"/>
<path fill="#111626" opacity="1.000000" stroke="none" 
	d="
M251.301300,81.242249 
	C251.118484,80.388107 250.985001,79.183128 250.876831,77.674454 
	C251.051620,78.544304 251.201111,79.717857 251.301300,81.242249 
z"/>
<path fill="#E14820" opacity="1.000000" stroke="none" 
	d="
M337.079376,51.466125 
	C337.951233,51.368614 338.729584,51.521481 339.791931,51.796120 
	C339.490601,52.281017 338.905365,52.644138 337.957733,53.026554 
	C337.392212,52.602734 337.189056,52.159622 337.079376,51.466125 
z"/>
<path fill="#E8E8E8" opacity="1.000000" stroke="none" 
	d="
M460.031769,71.907440 
	C459.183472,71.599648 458.243195,71.042892 457.277069,70.185822 
	C458.147400,70.476501 459.043610,71.067482 460.031769,71.907440 
z"/>
<path fill="#9E7C5F" opacity="1.000000" stroke="none" 
	d="
M359.964264,21.450329 
	C360.085785,21.153091 360.307037,21.000875 360.815430,21.308041 
	C361.014740,21.796270 361.026642,21.970148 361.189636,22.356606 
	C361.823303,23.027752 362.305878,23.486315 362.440735,23.956539 
	C361.397644,23.968916 360.702271,23.969633 359.993103,23.728804 
	C359.979309,23.487257 359.986572,23.003428 359.962463,22.615419 
	C359.947021,21.968386 359.955627,21.709358 359.964264,21.450329 
z"/>
<path fill="#120D13" opacity="1.000000" stroke="none" 
	d="
M282.815002,96.550110 
	C282.265137,96.113693 281.652191,95.410759 281.051514,94.403770 
	C281.626495,94.827675 282.189209,95.555634 282.815002,96.550110 
z"/>
<path fill="#E8E7DD" opacity="1.000000" stroke="none" 
	d="
M421.389709,97.456970 
	C420.945221,97.341820 420.672516,97.061348 420.421783,96.762482 
	C420.414490,96.753761 420.639069,96.550552 420.755524,96.438019 
	C421.025238,96.721687 421.294952,97.005356 421.389709,97.456970 
z"/>
<path fill="#594A41" opacity="1.000000" stroke="none" 
	d="
M369.562531,19.760845 
	C369.948761,19.931786 369.939880,20.110300 369.916321,20.556286 
	C369.192932,20.890665 368.484192,20.957573 367.164978,20.995605 
	C366.376495,20.954693 366.198517,20.942654 366.016266,20.732704 
	C366.012024,20.534796 366.033112,20.139446 366.033112,20.139448 
	C367.077881,20.015772 368.122681,19.892094 369.562531,19.760845 
z"/>
<path fill="#9E7C5F" opacity="1.000000" stroke="none" 
	d="
M365.744263,20.083363 
	C366.033112,20.139446 366.012024,20.534796 365.845612,20.999989 
	C365.090881,21.618769 364.502563,21.772358 363.950806,21.638794 
	C363.979156,21.158838 363.970947,20.966032 363.962769,20.773224 
	C364.460327,20.524574 364.957855,20.275927 365.744263,20.083363 
z"/>
<path fill="#D99042" opacity="1.000000" stroke="none" 
	d="
M341.356567,55.160027 
	C342.155975,54.716980 343.228180,54.388031 344.662964,54.122787 
	C344.484589,54.494728 343.943665,54.802959 343.108887,55.236229 
	C342.419830,55.332218 342.024567,55.303169 341.356567,55.160027 
z"/>
<path fill="#4D4138" opacity="1.000000" stroke="none" 
	d="
M359.600372,21.563435 
	C359.955627,21.709358 359.947021,21.968386 359.588959,22.617416 
	C358.493408,22.987110 357.747284,22.966801 357.001160,22.946491 
	C357.001160,22.946491 357.007080,22.553123 357.009827,22.356422 
	C357.753876,21.998661 358.495178,21.837599 359.600372,21.563435 
z"/>
<path fill="#E8E7DD" opacity="1.000000" stroke="none" 
	d="
M455.049683,94.628250 
	C454.822388,94.196304 454.606567,93.476952 454.526581,92.470604 
	C454.795349,92.902687 454.928284,93.621765 455.049683,94.628250 
z"/>
<path fill="#4D4138" opacity="1.000000" stroke="none" 
	d="
M363.595398,20.798542 
	C363.970947,20.966032 363.979156,21.158838 363.947144,21.704260 
	C363.906921,22.056875 364.022583,22.117258 363.650452,22.074169 
	C362.531738,22.068729 361.785156,22.106379 361.038544,22.144026 
	C361.026642,21.970148 361.014740,21.796270 361.020203,21.361629 
	C361.767700,21.008530 362.497894,20.916193 363.595398,20.798542 
z"/>
<path fill="#735C49" opacity="1.000000" stroke="none" 
	d="
M349.606476,24.485521 
	C349.937714,24.621510 349.930389,24.859512 349.687805,25.546291 
	C349.452606,25.995070 349.014954,26.228344 349.014954,26.228344 
	C348.535278,26.257189 348.055603,26.286036 347.258118,26.142759 
	C347.716187,25.509602 348.492035,25.048567 349.606476,24.485521 
z"/>
<path fill="#9E7C5F" opacity="1.000000" stroke="none" 
	d="
M488.590759,53.945370 
	C488.912476,54.297947 488.951813,54.776127 489.007874,55.613243 
	C488.525055,55.983288 488.025513,55.994400 487.151428,55.978371 
	C487.287415,55.324482 487.797882,54.697727 488.590759,53.945370 
z"/>
<path fill="#735C49" opacity="1.000000" stroke="none" 
	d="
M483.652771,56.599144 
	C483.394501,57.148205 482.815033,57.587612 481.828308,58.002266 
	C482.057922,57.481503 482.694733,56.985497 483.652771,56.599144 
z"/>
<path fill="#120D13" opacity="1.000000" stroke="none" 
	d="
M301.871643,73.523331 
	C301.361023,73.348900 300.806000,72.903122 300.196838,72.182518 
	C300.704224,72.355789 301.265747,72.803879 301.871643,73.523331 
z"/>
<path fill="#120D13" opacity="1.000000" stroke="none" 
	d="
M288.679260,69.106537 
	C288.235107,69.448311 287.478455,69.733101 286.404877,70.007584 
	C286.847534,69.681374 287.607178,69.365463 288.679260,69.106537 
z"/>
<path fill="#120D13" opacity="1.000000" stroke="none" 
	d="
M295.832916,69.740578 
	C295.210602,69.854980 294.343781,69.742691 293.243225,69.394363 
	C293.869141,69.276840 294.728760,69.395363 295.832916,69.740578 
z"/>
<path fill="#120D13" opacity="1.000000" stroke="none" 
	d="
M287.319183,72.856941 
	C287.816254,72.544075 288.643402,72.263878 289.815125,72.017281 
	C289.322906,72.330452 288.486084,72.610031 287.319183,72.856941 
z"/>
<path fill="#120D13" opacity="1.000000" stroke="none" 
	d="
M285.389099,102.107193 
	C285.659058,102.068169 286.116913,102.173843 286.732544,102.457237 
	C286.452545,102.507271 286.014801,102.379578 285.389099,102.107193 
z"/>
<path fill="#120D13" opacity="1.000000" stroke="none" 
	d="
M293.647888,99.253006 
	C293.419678,99.508614 292.906616,99.741035 292.099274,99.948288 
	C292.324341,99.692017 292.843658,99.460915 293.647888,99.253006 
z"/>
<path fill="#120D13" opacity="1.000000" stroke="none" 
	d="
M289.007446,99.730713 
	C288.644562,99.833679 288.041718,99.750320 287.223663,99.442886 
	C287.594788,99.327339 288.181183,99.435867 289.007446,99.730713 
z"/>
<path fill="#120D13" opacity="1.000000" stroke="none" 
	d="
M292.092407,72.175842 
	C292.389008,72.101402 292.919525,72.150093 293.653564,72.372406 
	C293.346832,72.463684 292.836578,72.381325 292.092407,72.175842 
z"/>
<path fill="#E8E8E8" opacity="1.000000" stroke="none" 
	d="
M462.929016,76.605743 
	C462.681793,76.822327 462.433777,76.693764 462.265045,76.168350 
	C462.495789,76.052673 462.690430,76.215706 462.929016,76.605743 
z"/>
<path fill="#E8E8E8" opacity="1.000000" stroke="none" 
	d="
M461.974487,75.589920 
	C461.725616,75.825996 461.478149,75.716034 461.335693,75.198578 
	C461.571472,75.088676 461.749847,75.239609 461.974487,75.589920 
z"/>
<path fill="#E8E8E8" opacity="1.000000" stroke="none" 
	d="
M461.025513,73.590843 
	C460.779144,73.769348 460.584808,73.662056 460.591064,73.236526 
	C460.696869,73.088898 460.982758,73.475655 461.025513,73.590843 
z"/>
<path fill="#594A41" opacity="1.000000" stroke="none" 
	d="
M458.188751,53.989059 
	C458.146973,53.842052 458.321747,53.616096 458.671417,53.269573 
	C458.869476,53.501732 458.722473,53.755432 458.188751,53.989059 
z"/>
<path fill="#E5DD98" opacity="1.000000" stroke="none" 
	d="
M342.749146,30.009281 
	C342.728882,30.147665 342.442535,30.277697 342.054962,30.233234 
	C342.130157,30.039469 342.306610,30.020201 342.749146,30.009281 
z"/>
<path fill="#735C49" opacity="1.000000" stroke="none" 
	d="
M346.654907,25.934452 
	C346.596405,26.179739 346.200134,26.424515 345.723633,26.326628 
	C345.868011,25.967291 346.092560,25.950617 346.654907,25.934452 
z"/>
<path fill="#4D4138" opacity="1.000000" stroke="none" 
	d="
M454.603210,107.427750 
	C455.431824,108.469383 455.956085,109.701134 456.318878,110.553596 
	C455.507782,111.153046 454.125763,112.174446 452.844330,113.574249 
	C451.263397,112.625992 449.581848,111.299332 447.585785,109.724525 
	C446.730347,109.927071 445.380524,110.246658 443.729584,110.665924 
	C445.314301,109.098747 446.743835,106.383621 450.059692,108.910881 
	C450.745758,109.433769 452.848877,108.097359 454.603210,107.427750 
z"/>
<path fill="#DBDADB" opacity="1.000000" stroke="none" 
	d="
M432.990234,67.055382 
	C428.875305,70.869232 427.855621,67.395844 426.858582,64.162140 
	C427.067932,63.962227 427.511261,63.987717 427.730865,63.955437 
	C429.101379,64.592979 430.252258,65.262802 431.961670,66.072586 
	C432.752289,66.451431 432.908966,66.732368 432.990234,67.055382 
z"/>
<path fill="#DBDADB" opacity="1.000000" stroke="none" 
	d="
M449.726746,63.235733 
	C449.297577,64.470070 448.517700,65.709129 447.363495,66.971809 
	C446.989197,66.995422 446.925110,66.940048 446.925110,66.940048 
	C446.755188,65.960640 446.585297,64.981232 446.268799,63.751156 
	C447.206818,63.413815 448.291412,63.327137 449.726746,63.235733 
z"/>
<path fill="#DBDADB" opacity="1.000000" stroke="none" 
	d="
M443.862305,61.727619 
	C442.679138,62.007240 441.326447,62.027092 439.571838,62.052361 
	C440.677551,61.861130 442.185150,61.664490 443.862305,61.727619 
z"/>
<path fill="#DBDADB" opacity="1.000000" stroke="none" 
	d="
M437.577759,61.857182 
	C436.446960,62.048431 435.108978,62.030891 433.365997,61.999245 
	C434.430847,61.872887 435.900696,61.760643 437.577759,61.857182 
z"/>
<path fill="#DBDADB" opacity="1.000000" stroke="none" 
	d="
M431.698242,62.229549 
	C431.388397,62.452400 430.726379,62.657688 430.002502,62.596306 
	C430.409119,62.290421 430.877594,62.251205 431.698242,62.229549 
z"/>
<path fill="#757374" opacity="1.000000" stroke="none" 
	d="
M433.395874,66.999374 
	C432.908966,66.732368 432.752289,66.451431 432.305176,66.099297 
	C433.451782,65.689537 434.813446,65.393028 436.637085,65.448509 
	C437.090942,66.210381 437.082794,66.620255 437.074615,67.030136 
	C435.983582,67.001213 434.892548,66.972298 433.395874,66.999374 
z"/>
<path fill="#DBDADB" opacity="1.000000" stroke="none" 
	d="
M437.407440,66.989578 
	C437.082794,66.620255 437.090942,66.210381 437.011780,65.489265 
	C437.526062,65.042969 438.127655,64.907906 438.729248,64.772842 
	C438.399597,65.498245 438.069916,66.223640 437.407440,66.989578 
z"/>
<path fill="#DBDADB" opacity="1.000000" stroke="none" 
	d="
M447.017761,67.026680 
	C446.913849,67.067131 446.781372,67.076317 446.786987,67.012779 
	C446.925110,66.940048 446.989197,66.995422 447.017761,67.026680 
z"/>
<path fill="#4D4138" opacity="1.000000" stroke="none" 
	d="
M453.141296,114.189148 
	C453.193817,114.220612 453.348297,114.365204 453.571045,114.641792 
	C453.483459,114.639526 453.351471,114.482361 453.141296,114.189148 
z"/>
<path fill="#2E2927" opacity="1.000000" stroke="none" 
	d="
M393.990417,57.651909 
	C394.289642,57.891140 394.588867,58.130371 395.006744,58.640377 
	C394.586639,58.939732 394.047913,58.968311 393.244629,58.904404 
	C392.980103,58.811920 392.963776,58.399277 392.981262,58.198738 
	C392.998718,57.998203 392.988464,57.981247 393.254517,57.946312 
	C393.677216,57.824890 393.833832,57.738396 393.990417,57.651909 
z"/>
<path fill="#EEF1ED" opacity="1.000000" stroke="none" 
	d="
M233.220703,98.258102 
	C231.519684,98.923294 229.833054,100.016289 228.750122,99.586853 
	C227.001846,98.893600 224.647583,97.350914 224.423737,95.881447 
	C224.213593,94.502022 226.105621,92.085800 227.660110,91.323120 
	C229.956909,90.196236 232.773621,90.129097 236.724945,89.339836 
	C235.518661,92.586227 234.512375,95.294373 233.220703,98.258102 
z"/>
<path fill="#F4F5F1" opacity="1.000000" stroke="none" 
	d="
M192.145050,72.450165 
	C197.465408,73.721924 197.903412,77.377655 197.364731,81.440697 
	C196.812485,85.605934 193.716919,86.581360 190.168304,86.731888 
	C187.901978,86.828026 185.628281,86.749886 183.155609,86.749886 
	C183.155609,81.732185 183.155609,77.204445 183.155609,72.330093 
	C186.202866,72.330093 188.975250,72.330093 192.145050,72.450165 
z"/>
<path fill="#F1F5F2" opacity="1.000000" stroke="none" 
	d="
M144.308563,99.642578 
	C142.715897,98.038940 140.189560,96.015884 140.541473,95.105972 
	C141.203735,93.393593 143.358765,91.976868 145.205719,91.082870 
	C147.086197,90.172638 149.342972,90.039772 151.431686,89.567268 
	C152.661942,96.064232 151.096741,98.440994 144.308563,99.642578 
z"/>
<path fill="#E8E8E8" opacity="1.000000" stroke="none" 
	d="
M114.950661,84.115387 
	C117.363113,80.473015 120.605026,79.129059 124.064804,80.985443 
	C126.069778,82.061241 127.257332,84.660484 128.812744,86.574142 
	C128.436035,86.977036 128.059341,87.379929 127.682632,87.782822 
	C124.057877,87.782822 120.429184,87.678650 116.809601,87.815460 
	C113.862259,87.926865 113.874176,86.548531 114.950661,84.115387 
z"/>
<path fill="#F1A54B" opacity="1.000000" stroke="none" 
	d="
M376.544189,21.914293 
	C377.649414,21.902954 378.462097,21.921688 379.678528,21.889687 
	C380.082275,21.838951 380.459503,21.882044 381.029510,21.926872 
	C382.725616,21.659948 383.851715,21.348196 384.977814,21.036442 
	C385.850525,21.166523 386.723236,21.296604 387.813354,21.680965 
	C388.219971,23.410841 388.244965,24.931610 388.635651,26.351772 
	C389.271027,28.661404 390.145660,30.905226 390.625000,33.604164 
	C389.413696,34.062862 388.496674,34.094223 387.275574,34.155682 
	C386.652557,34.420059 386.333710,34.654346 386.051300,34.919018 
	C386.087769,34.949402 386.052399,35.037498 385.820923,35.026680 
	C385.589478,35.015865 385.126587,35.038124 384.889709,35.116646 
	C384.350983,35.365955 384.139008,35.613625 383.694672,35.838219 
	C380.220398,36.160503 377.068329,36.582745 373.916260,37.004982 
	C370.647156,37.415600 367.373413,38.198433 364.109894,38.158115 
	C357.635406,38.078129 351.166565,37.544182 344.315430,37.019379 
	C344.086914,36.558208 344.295166,36.326683 345.110687,36.056923 
	C346.112000,35.956432 346.562958,35.945351 347.453339,35.953827 
	C350.796478,35.973385 353.700195,35.973385 356.838257,35.973385 
	C356.080078,31.295357 359.535004,29.342724 362.930939,27.598965 
	C366.884491,25.568861 371.020782,23.894634 375.077789,22.065960 
	C375.469086,22.025427 375.860382,21.984896 376.544189,21.914293 
M386.414215,31.483229 
	C386.414215,31.483229 386.522644,31.419168 386.414215,31.483229 
z"/>
<path fill="#325E0C" opacity="1.000000" stroke="none" 
	d="
M387.579681,34.125587 
	C388.496674,34.094223 389.413696,34.062862 390.662781,33.927231 
	C394.682251,33.913708 398.369659,34.004456 402.479767,34.269562 
	C402.459534,34.950718 402.016571,35.457512 400.945801,35.947559 
	C399.532745,36.291817 398.747559,36.652828 397.962341,37.013836 
	C396.766998,37.795662 395.571625,38.577496 393.884430,39.782001 
	C391.831177,41.754524 390.269775,43.304371 388.354919,44.843277 
	C387.286224,43.818295 386.570923,42.804249 386.038452,41.525394 
	C386.792908,40.234783 387.364563,39.208984 387.908447,37.867584 
	C387.271240,36.713821 386.661804,35.875664 386.052399,35.037502 
	C386.052399,35.037498 386.087769,34.949402 386.353699,34.881676 
	C386.939636,34.584492 387.259644,34.355038 387.579681,34.125587 
z"/>
<path fill="#2E5D0A" opacity="1.000000" stroke="none" 
	d="
M405.419434,41.937344 
	C404.498749,44.058205 403.281952,46.152832 402.033752,48.596939 
	C400.861755,49.284710 399.721252,49.622997 397.837769,50.020737 
	C394.710754,50.692257 392.326721,51.304325 389.720551,51.933441 
	C389.498413,51.950489 389.053070,51.937057 389.053070,51.937057 
	C384.536407,51.313290 380.595734,53.011005 376.367065,54.568054 
	C376.246735,52.941948 376.485565,51.743252 376.828583,50.277962 
	C377.668671,49.403301 378.404541,48.795238 379.370483,47.962631 
	C380.978394,47.622337 382.362427,47.360607 383.732880,47.418858 
	C387.483215,47.578278 391.227875,47.872406 395.360046,48.085175 
	C399.815369,48.079113 401.324951,45.490314 401.936218,41.985565 
	C402.998596,41.960747 404.060944,41.935928 405.419434,41.937344 
z"/>
<path fill="#425110" opacity="1.000000" stroke="none" 
	d="
M376.724396,50.544563 
	C376.485565,51.743252 376.246735,52.941948 376.004486,54.511086 
	C376.001068,54.881519 375.536652,55.020615 375.050598,55.102852 
	C374.144714,55.461090 373.724884,55.737087 372.967682,55.981926 
	C372.027893,56.166073 371.425446,56.381371 370.407959,56.669884 
	C366.968292,56.650394 363.943756,56.557693 360.919189,56.464993 
	C360.328522,56.427410 359.737854,56.389832 358.964600,56.615356 
	C355.026184,56.228462 351.270294,55.578465 347.253784,54.692028 
	C347.054504,53.938908 347.115875,53.422222 347.248688,52.523483 
	C348.936646,51.444809 350.553131,50.748184 352.874634,50.019150 
	C353.812073,49.925598 354.044495,49.864449 354.355408,49.790604 
	C354.433868,49.777905 354.585449,49.825962 354.884552,49.914509 
	C355.381256,50.067852 355.578888,50.132648 355.842834,50.480927 
	C356.242249,51.219971 356.575348,51.675537 357.110962,52.388496 
	C358.165009,52.780689 359.016602,52.915482 360.039429,53.399086 
	C365.440643,55.853394 371.576935,54.763912 375.459412,51.034615 
	C376.059631,50.835617 376.391998,50.690090 376.724396,50.544563 
z"/>
<path fill="#C17834" opacity="1.000000" stroke="none" 
	d="
M394.056091,54.799507 
	C394.037354,55.300175 394.018585,55.800842 393.757812,56.650284 
	C393.515839,56.999062 393.033691,56.968914 392.808411,56.684059 
	C391.389130,56.263165 390.195190,56.127132 389.001221,55.991100 
	C389.005066,55.505829 389.008911,55.020561 389.377686,54.091732 
	C390.829834,53.436516 391.916992,53.224857 393.001831,53.005219 
	C392.999451,52.997242 392.983582,53.003250 393.047058,53.262890 
	C393.425720,53.948189 393.740906,54.373848 394.056091,54.799507 
z"/>
<path fill="#63511A" opacity="1.000000" stroke="none" 
	d="
M373.305054,56.013088 
	C373.724884,55.737087 374.144714,55.461090 374.811279,55.141426 
	C373.618256,56.714264 372.178467,58.330765 370.376526,60.029530 
	C369.926514,59.926334 369.838623,59.740871 369.879974,59.033638 
	C370.352478,58.289158 370.695709,58.066452 371.369080,57.876667 
	C372.234558,57.277424 372.769806,56.645260 373.305054,56.013088 
z"/>
<path fill="#ECA34D" opacity="1.000000" stroke="none" 
	d="
M389.066406,56.348053 
	C390.195190,56.127132 391.389130,56.263165 392.789825,56.937164 
	C392.993866,57.643833 392.991180,57.812538 392.988464,57.981247 
	C392.988464,57.981247 392.998718,57.998203 392.988495,57.992386 
	C391.696045,57.559380 390.413818,57.132191 389.066406,56.348053 
z"/>
<path fill="#63511A" opacity="1.000000" stroke="none" 
	d="
M393.004181,53.013191 
	C391.916992,53.224857 390.829834,53.436516 389.421021,53.730049 
	C389.056244,53.395599 389.013123,52.979282 389.011536,52.250008 
	C389.053070,51.937057 389.498413,51.950489 390.066162,51.985260 
	C391.424011,52.351086 392.214111,52.682137 393.004181,53.013191 
z"/>
<path fill="#91BF3D" opacity="1.000000" stroke="none" 
	d="
M354.250092,41.228062 
	C357.931610,41.098698 361.613129,40.969337 365.793335,41.306736 
	C366.503174,43.775459 366.714325,45.777424 366.671722,47.939705 
	C365.686951,48.778229 364.955933,49.456432 363.880432,50.178646 
	C362.048096,49.736435 360.560150,49.250214 358.940125,48.456474 
	C358.534607,47.306740 358.261200,46.464523 357.851990,45.480492 
	C357.525604,45.156258 357.313538,45.003635 357.072083,44.561138 
	C356.126068,43.237000 355.188080,42.232533 354.250092,41.228062 
z"/>
<path fill="#B4661B" opacity="1.000000" stroke="none" 
	d="
M385.820923,35.026688 
	C386.661804,35.875664 387.271240,36.713821 387.521301,37.859520 
	C383.812439,39.410660 380.462952,40.654259 376.827637,41.965363 
	C376.348785,42.065544 376.155762,42.098221 375.962769,42.130898 
	C375.282745,40.631050 374.602753,39.131199 373.919495,37.318169 
	C377.068329,36.582745 380.220398,36.160503 383.937836,35.775826 
	C384.710999,35.554966 384.918793,35.296539 385.126587,35.038116 
	C385.126587,35.038124 385.589478,35.015865 385.820923,35.026688 
z"/>
<path fill="#4F7B55" opacity="1.000000" stroke="none" 
	d="
M353.855774,41.163860 
	C355.188080,42.232533 356.126068,43.237000 356.730103,44.708870 
	C356.278778,45.621265 356.161438,46.066254 356.053162,46.742210 
	C355.954773,47.265087 355.900818,47.566559 355.899841,47.903572 
	C355.899353,47.929550 355.950165,47.918682 355.691711,48.000443 
	C355.244141,48.380592 355.055023,48.678978 354.791687,49.188148 
	C354.717438,49.398933 354.585449,49.825962 354.585449,49.825962 
	C354.585449,49.825962 354.433868,49.777905 354.272400,49.534355 
	C354.073853,49.114651 354.036835,48.938496 353.999847,48.762341 
	C352.123566,47.068546 350.247314,45.374752 348.229065,43.387749 
	C349.878571,42.429581 351.669983,41.764618 353.855774,41.163860 
z"/>
<path fill="#882912" opacity="1.000000" stroke="none" 
	d="
M375.960907,42.406361 
	C376.155762,42.098221 376.348785,42.065544 377.053650,42.005081 
	C377.565460,41.977303 378.012726,42.083923 377.982971,42.388924 
	C377.636017,43.656136 377.318787,44.618351 376.721863,45.851151 
	C373.336426,47.439831 370.230682,48.757923 366.846008,50.146248 
	C365.786316,50.189194 365.005615,50.161919 364.224884,50.134636 
	C364.955933,49.456432 365.686951,48.778229 366.988708,47.875969 
	C370.078552,46.442539 372.597656,45.233154 375.116791,44.023773 
	C375.397552,43.576462 375.678314,43.129143 375.960907,42.406361 
z"/>
<path fill="#509B12" opacity="1.000000" stroke="none" 
	d="
M374.878967,43.835815 
	C372.597656,45.233154 370.078552,46.442539 367.242432,47.715652 
	C366.714325,45.777424 366.503174,43.775459 366.099609,41.441612 
	C368.818481,41.955769 371.729797,42.801815 374.878967,43.835815 
z"/>
<path fill="#735C49" opacity="1.000000" stroke="none" 
	d="
M353.785156,48.942635 
	C354.036835,48.938496 354.073853,49.114651 354.193909,49.547054 
	C354.044495,49.864449 353.812073,49.925598 353.217834,49.984367 
	C353.094177,49.695637 353.332306,49.409279 353.785156,48.942635 
z"/>
<path fill="#495F1D" opacity="1.000000" stroke="none" 
	d="
M359.633789,58.274406 
	C359.928436,58.861027 359.921692,59.523067 359.902679,60.516998 
	C359.704407,60.015865 359.518402,59.182846 359.633789,58.274406 
z"/>
<path fill="#E94F23" opacity="1.000000" stroke="none" 
	d="
M401.609497,41.809792 
	C401.324951,45.490314 399.815369,48.079113 394.989990,48.022568 
	C392.392548,46.943398 390.550476,45.898808 388.708374,44.854218 
	C390.269775,43.304371 391.831177,41.754524 393.678772,40.008408 
	C396.404236,40.419437 398.843506,41.026730 401.609497,41.809792 
z"/>
<path fill="#91BF3D" opacity="1.000000" stroke="none" 
	d="
M398.318787,37.034508 
	C398.747559,36.652828 399.532745,36.291817 400.667725,35.975784 
	C400.236755,36.365566 399.456024,36.710369 398.318787,37.034508 
z"/>
<path fill="#54A615" opacity="1.000000" stroke="none" 
	d="
M393.001831,53.005215 
	C392.214111,52.682137 391.424011,52.351086 390.288330,51.968216 
	C392.326721,51.304325 394.710754,50.692257 397.507507,50.178162 
	C397.701843,50.646690 397.483459,51.017246 396.847137,51.782272 
	C395.280670,52.452248 394.132111,52.727745 392.983582,53.003250 
	C392.983582,53.003250 392.999451,52.997242 393.001831,53.005215 
z"/>
<path fill="#63511A" opacity="1.000000" stroke="none" 
	d="
M393.047058,53.262886 
	C394.132111,52.727745 395.280670,52.452248 396.738312,51.974197 
	C396.281219,52.790382 395.515045,53.809124 394.402466,54.813686 
	C393.740906,54.373848 393.425720,53.948189 393.047058,53.262886 
z"/>
<path fill="#D99042" opacity="1.000000" stroke="none" 
	d="
M393.254517,57.946312 
	C392.991180,57.812538 392.993866,57.643833 393.015137,57.222023 
	C393.033691,56.968914 393.515839,56.999062 393.755859,57.026253 
	C393.995911,57.053448 393.991608,57.354343 393.991028,57.503124 
	C393.833832,57.738396 393.677216,57.824890 393.254517,57.946312 
z"/>
<path fill="#ECA34D" opacity="1.000000" stroke="none" 
	d="
M384.609253,21.017178 
	C383.851715,21.348196 382.725616,21.659948 381.218872,21.940170 
	C381.972382,21.605066 383.106537,21.301491 384.609253,21.017178 
z"/>
<path fill="#F4C659" opacity="1.000000" stroke="none" 
	d="
M347.013885,35.934269 
	C346.562958,35.945351 346.112000,35.956432 345.322571,35.955460 
	C344.549500,33.816906 342.954559,31.339714 347.096069,30.214582 
	C347.550568,29.970352 348.027649,30.030014 347.976807,30.404922 
	C347.621948,32.497974 347.317932,34.216122 347.013885,35.934269 
z"/>
<path fill="#E2C97C" opacity="1.000000" stroke="none" 
	d="
M348.027649,30.030006 
	C348.027649,30.030014 347.550568,29.970352 347.312866,29.941780 
	C347.074951,29.737354 347.074768,29.561501 347.107452,29.121674 
	C347.567566,28.613573 347.994781,28.369444 348.667358,28.348557 
	C348.617676,29.057865 348.322662,29.543932 348.027649,30.030006 
z"/>
<path fill="#F9CD5C" opacity="1.000000" stroke="none" 
	d="
M347.976807,30.404915 
	C348.322662,29.543932 348.617676,29.057865 348.905701,28.273197 
	C348.898682,27.974594 349.181000,27.928885 349.669769,27.949450 
	C350.447357,27.645994 350.736206,27.321974 351.010742,26.996384 
	C350.996399,26.994818 350.991791,27.023218 351.337830,27.052948 
	C352.425262,26.670898 353.166595,26.259119 354.243286,25.875771 
	C355.139893,25.598745 355.701172,25.293289 356.386597,25.004807 
	C356.510742,25.021780 356.761292,25.022472 357.125580,25.035965 
	C358.328888,24.689756 359.167908,24.330057 360.006927,23.970354 
	C360.702271,23.969633 361.397644,23.968916 362.711365,23.898663 
	C363.581818,23.572294 363.833862,23.315464 364.453461,23.044018 
	C365.787567,23.005274 366.754120,22.981146 367.720703,22.957020 
	C369.893677,22.642572 372.066681,22.328123 374.658722,22.039818 
	C371.020782,23.894634 366.884491,25.568861 362.930939,27.598965 
	C359.535004,29.342724 356.080078,31.295357 356.838257,35.973385 
	C353.700195,35.973385 350.796478,35.973385 347.453339,35.953827 
	C347.317932,34.216122 347.621948,32.497974 347.976807,30.404915 
z"/>
<path fill="#C39873" opacity="1.000000" stroke="none" 
	d="
M367.681854,22.714853 
	C366.754120,22.981146 365.787567,23.005274 364.429718,22.808968 
	C364.038452,22.588531 364.022583,22.117258 364.022583,22.117258 
	C364.022583,22.117258 363.906921,22.056875 363.910583,21.991409 
	C364.502563,21.772358 365.090881,21.618769 365.849854,21.197897 
	C366.198517,20.942654 366.376495,20.954693 366.811523,21.041014 
	C367.260040,21.567759 367.451508,22.020224 367.681854,22.714853 
z"/>
<path fill="#83BA31" opacity="1.000000" stroke="none" 
	d="
M371.038910,57.843742 
	C370.695709,58.066452 370.352478,58.289158 369.790100,58.739182 
	C369.161835,59.110470 368.752655,59.254440 367.814178,59.654625 
	C366.520844,59.922153 365.756836,59.933464 364.992828,59.944778 
	C364.992828,59.944778 365.007416,59.993378 365.030182,59.980545 
	C363.889893,59.596035 362.726868,59.224358 361.329498,59.032166 
	C361.052277,58.522106 361.009369,57.832550 360.942810,56.803993 
	C363.943756,56.557693 366.968292,56.650394 370.469116,56.981758 
	C370.976532,57.428196 371.007721,57.635967 371.038910,57.843742 
z"/>
<path fill="#63511A" opacity="1.000000" stroke="none" 
	d="
M365.172028,60.225670 
	C365.756836,59.933464 366.520844,59.922153 367.657318,59.816734 
	C367.136932,59.983940 366.244080,60.245251 365.172028,60.225670 
z"/>
<path fill="#E2C97C" opacity="1.000000" stroke="none" 
	d="
M349.126526,26.396572 
	C349.014954,26.228344 349.452606,25.995070 349.683075,25.903435 
	C350.195251,25.751181 350.476990,25.690559 350.995514,25.903156 
	C351.152161,26.458656 351.071991,26.740936 350.991791,27.023218 
	C350.991791,27.023218 350.996399,26.994818 350.733063,26.986584 
	C350.284485,26.981083 350.099274,26.983818 349.914093,26.986551 
	C349.642456,26.920179 349.417114,26.779596 349.126526,26.396572 
z"/>
<path fill="#C17834" opacity="1.000000" stroke="none" 
	d="
M349.790344,27.236677 
	C350.099274,26.983818 350.284485,26.981083 350.747375,26.988152 
	C350.736206,27.321974 350.447357,27.645994 349.807739,27.987030 
	C349.526855,27.831635 349.596741,27.659220 349.790344,27.236677 
z"/>
<path fill="#C89B73" opacity="1.000000" stroke="none" 
	d="
M359.993103,23.728807 
	C359.167908,24.330057 358.328888,24.689756 357.182068,24.820492 
	C356.874237,24.591528 356.999176,24.166161 356.999176,24.166161 
	C356.968933,23.962877 356.938660,23.759592 356.954773,23.251400 
	C357.747284,22.966801 358.493408,22.987110 359.613037,23.005424 
	C359.986572,23.003428 359.979309,23.487257 359.993103,23.728807 
z"/>
<path fill="#E2C97C" opacity="1.000000" stroke="none" 
	d="
M356.602234,24.088768 
	C356.999176,24.166161 356.874237,24.591528 356.817749,24.806999 
	C356.761292,25.022472 356.510742,25.021780 355.980286,25.022352 
	C354.920990,25.108894 354.392151,25.194864 353.617554,25.231777 
	C353.206085,25.161821 353.040375,25.140921 352.874634,25.120022 
	C352.874634,25.120022 353.031097,24.874344 353.043854,24.731962 
	C354.106171,24.396845 355.155701,24.204109 356.602234,24.088768 
z"/>
<path fill="#C17834" opacity="1.000000" stroke="none" 
	d="
M352.694855,25.110342 
	C353.040375,25.140921 353.206085,25.161821 353.643646,25.370838 
	C353.915466,25.558954 353.907959,25.847340 353.907959,25.847340 
	C353.166595,26.259119 352.425262,26.670898 351.337830,27.052948 
	C351.071991,26.740936 351.152161,26.458656 351.403778,25.761080 
	C351.855774,25.156036 352.169037,25.074329 352.694855,25.110342 
z"/>
<path fill="#E2C97C" opacity="1.000000" stroke="none" 
	d="
M363.650452,22.074169 
	C364.022583,22.117258 364.038452,22.588531 364.062195,22.823584 
	C363.833862,23.315464 363.581818,23.572294 363.059113,23.886999 
	C362.305878,23.486315 361.823303,23.027752 361.189636,22.356609 
	C361.785156,22.106379 362.531738,22.068729 363.650452,22.074169 
z"/>
<path fill="#ECA34D" opacity="1.000000" stroke="none" 
	d="
M384.889709,35.116642 
	C384.918793,35.296539 384.710999,35.554966 384.260040,35.875782 
	C384.139008,35.613625 384.350983,35.365955 384.889709,35.116642 
z"/>
<path fill="#ECA34D" opacity="1.000000" stroke="none" 
	d="
M387.275574,34.155678 
	C387.259644,34.355038 386.939636,34.584492 386.317200,34.851292 
	C386.333710,34.654346 386.652557,34.420059 387.275574,34.155678 
z"/>
<path fill="#ECA34D" opacity="1.000000" stroke="none" 
	d="
M386.468445,31.451199 
	C386.522644,31.419168 386.414215,31.483229 386.468445,31.451199 
z"/>
<path fill="#84200F" opacity="1.000000" stroke="none" 
	d="
M388.354950,44.843281 
	C390.550476,45.898808 392.392548,46.943398 394.604675,48.050591 
	C391.227875,47.872406 387.483215,47.578278 383.732880,47.418858 
	C382.362427,47.360607 380.978394,47.622337 379.289276,47.605377 
	C378.319183,46.841969 377.660400,46.211266 377.001587,45.580566 
	C377.318787,44.618351 377.636017,43.656136 378.355042,42.471855 
	C381.123108,42.096600 383.489349,41.943405 385.855621,41.790207 
	C386.570923,42.804249 387.286224,43.818295 388.354950,44.843281 
z"/>
<path fill="#F3AB13" opacity="1.000000" stroke="none" 
	d="
M386.038452,41.525398 
	C383.489349,41.943405 381.123108,42.096600 378.384766,42.166859 
	C378.012726,42.083923 377.565460,41.977303 377.339447,41.937580 
	C380.462952,40.654259 383.812439,39.410660 387.549103,38.175121 
	C387.364563,39.208984 386.792908,40.234783 386.038452,41.525398 
z"/>
<path fill="#E14820" opacity="1.000000" stroke="none" 
	d="
M376.721863,45.851151 
	C377.660400,46.211266 378.319183,46.841969 379.059204,47.829918 
	C378.404541,48.795238 377.668671,49.403301 376.828583,50.277966 
	C376.391998,50.690090 376.059631,50.835617 375.055878,51.012413 
	C373.576965,51.035980 372.769440,51.028271 371.584167,51.007111 
	C369.845978,50.687782 368.485443,50.381905 367.124939,50.076023 
	C370.230682,48.757923 373.336426,47.439831 376.721863,45.851151 
z"/>
<path fill="#C63014" opacity="1.000000" stroke="none" 
	d="
M366.846008,50.146248 
	C368.485443,50.381905 369.845978,50.687782 371.338928,51.290764 
	C367.603607,52.075333 363.735901,52.562805 359.868164,53.050274 
	C359.016602,52.915482 358.165009,52.780689 357.149200,52.033936 
	C356.973541,50.949409 356.962128,50.476841 356.957458,49.983929 
	C356.964142,49.963589 357.004303,49.948627 357.323730,49.927124 
	C358.119507,49.525074 358.595886,49.144531 359.072235,48.763992 
	C360.560150,49.250214 362.048096,49.736435 363.880432,50.178650 
	C365.005615,50.161919 365.786316,50.189194 366.846008,50.146248 
z"/>
<path fill="#D83E11" opacity="1.000000" stroke="none" 
	d="
M360.039429,53.399086 
	C363.735901,52.562805 367.603607,52.075333 371.716614,51.304214 
	C372.769440,51.028271 373.576965,51.035980 374.788055,51.065887 
	C371.576935,54.763912 365.440643,55.853394 360.039429,53.399086 
z"/>
<path fill="#91BF3D" opacity="1.000000" stroke="none" 
	d="
M371.369080,57.876663 
	C371.007721,57.635967 370.976532,57.428196 370.884186,56.908546 
	C371.425446,56.381371 372.027893,56.166073 372.967682,55.981934 
	C372.769806,56.645260 372.234558,57.277424 371.369080,57.876663 
z"/>
<path fill="#E14820" opacity="1.000000" stroke="none" 
	d="
M354.884552,49.914509 
	C354.585449,49.825962 354.717438,49.398933 355.045868,49.095856 
	C355.566254,48.501419 355.758209,48.210056 355.950195,47.918686 
	C355.950165,47.918682 355.899353,47.929550 356.179932,48.065365 
	C356.641785,48.783661 356.823059,49.366142 357.004303,49.948627 
	C357.004303,49.948627 356.964142,49.963589 356.663757,50.029785 
	C356.167725,50.129807 355.972107,50.163628 355.776520,50.197449 
	C355.578888,50.132648 355.381256,50.067852 354.884552,49.914509 
z"/>
<path fill="#882912" opacity="1.000000" stroke="none" 
	d="
M355.842834,50.480927 
	C355.972107,50.163628 356.167725,50.129807 356.657043,50.050125 
	C356.962128,50.476841 356.973541,50.949409 356.946716,51.776543 
	C356.575348,51.675537 356.242249,51.219971 355.842834,50.480927 
z"/>
<path fill="#882912" opacity="1.000000" stroke="none" 
	d="
M357.323730,49.927124 
	C356.823059,49.366142 356.641785,48.783661 356.180420,48.039383 
	C355.900818,47.566559 355.954773,47.265087 356.399414,46.648663 
	C357.153656,46.090199 357.570740,45.856255 357.987793,45.622307 
	C358.261200,46.464523 358.534607,47.306740 358.940125,48.456470 
	C358.595886,49.144531 358.119507,49.525074 357.323730,49.927124 
z"/>
<path fill="#92C684" opacity="1.000000" stroke="none" 
	d="
M357.851990,45.480492 
	C357.570740,45.856255 357.153656,46.090199 356.390350,46.417694 
	C356.161438,46.066254 356.278778,45.621265 356.738098,45.028542 
	C357.313538,45.003635 357.525604,45.156258 357.851990,45.480492 
z"/>
<path fill="#882912" opacity="1.000000" stroke="none" 
	d="
M355.691711,48.000450 
	C355.758209,48.210056 355.566254,48.501419 355.120117,48.885071 
	C355.055023,48.678978 355.244141,48.380592 355.691711,48.000450 
z"/>
<path fill="#9E7C5F" opacity="1.000000" stroke="none" 
	d="
M354.243286,25.875771 
	C353.907959,25.847340 353.915466,25.558954 353.889404,25.419895 
	C354.392151,25.194864 354.920990,25.108894 355.856140,25.005379 
	C355.701172,25.293289 355.139893,25.598745 354.243286,25.875771 
z"/>
</svg>